<svg xmlns="http://www.w3.org/2000/svg" viewBox="0 0 152.89 158.34">
    <defs>
        <style>
            .cls-1{fill-rule:evenodd;}.cls-2{fill:#010101;}.cls-3{fill:#fff;}
        </style>
    </defs>
    <path d="M93.06 14.42c-.69-.12-1.36-.88-2.15-.59.65.41 4.11.75 3.88.49q-.86.01-1.73.1zm48.72 71.75v-.4c-.03.23-.04.46 0 .4zM120.4 29.52c-1.49-.12-.15.02 0 0zM103.71 18.7l-.33-.11zM50.8 135.4c1 .71-1.88-.49-.38.49-.09-.17 1.65.25.38-.49zm50.75-118.69c.62-.3.07.06 0 0zm-5.45-1.48a.47.47 0 0 0 .18.07zm6.99 123.27l-.21.12zM28.2 33.74c-.13.51.62-.48 0 0zm115.02 49.38c0 .29.06.57.08.87.05-.47.08-.84-.08-.87zm.07.88a8.23 8.23 0 0 0-.16 1.24 5.28 5.28 0 0 0 .16-1.24zM96.4 14.72c.73.11.08-.02 0 0zm0 0l-.31-.05a.76.76 0 0 0 .31.05zm-.32-.05a1.65 1.65 0 0 0-.65-.11zm17.7 9.84l-1.57-1.11q.6.65-.24.18c1.52 1.29.09-.23 1.81.93zm4.68 3.67c-.84-.6-.09.13-.18.14.57.34.72.43.18-.14zM76 141.2a12.7 12.7 0 0 0 1.76.13 3.62 3.62 0 0 0-1.76-.13zM12.46 86.64c1.01 1.19-.26-1.45 0 0z"
          class="cls-1"/>
    <path d="M15.42 57.23C9.27 75.44 12.58 97.56 24.05 113a64.8 64.8 0 0 1-8.63-55.77z"/>
    <path d="M149.09 75c-.4-.79-2.1-8.84-4.6-3.23-3.39-16.9-7.49-31.15-20.18-43.69-11.51-11.4-25.8-17.34-41.73-19.25 4.1-3.89-2.49-3.54-3.08-4.34-.8-1.1.61-2.74-1.14-4-2.81-2-2.1 2.48-1.67 3.58.44 0-4.18 1.65-3 .8-1.22.89-2.73 1.78-1.38 3.77C38 11.7 12.55 36.91 8.69 71.12c-2.1-.43-2.36-1.84-4.14.46-.61.79.73 1.87-.26 3.09-.63.77-2.54-1-3.79.77-2 2.81 2.48 2.1 3.58 1.67 0-.45 1.66 4.19.8 3 .9 1.22 1.82 2.75 3.8 1.36 1.58 17.76 8.77 33.58 22 45.69a66 66 0 0 0 20.54 12.94 67.24 67.24 0 0 0 13.24 3.58c2 .33 5.7-.07 7.3.86.36.21.93 1.34 1.84 1.84 1.53-.14-5.36 1.77-2.36.33-1 .49-1.85-.24-2.74 1.09-1.94 2.91 1.76 5.62 4.4 3.19a2.8 2.8 0 0 0 1.39 1.57q.72 1.18-.88 1.68c.21 1.58-.82 2.39 1.08 3.54 2.46 1.49 2.8-.34 3.75-1.73a5.08 5.08 0 0 0-.74-3 4.65 4.65 0 0 0 2.5-2.52c1.44 2.84 4.4.39 3.9-2.1-.76-3.79-4.56-.87-5.05-2 2.37-1.85 5-2 8.69-2.59a70.2 70.2 0 0 0 14.71-4 65.93 65.93 0 0 0 21-13.61c12.49-11.87 19.26-28 21.2-44.94 1.73 1.73 5.42-.63 3-2.3 1-.32 1.12-1.46 1.85-1.84.91-.47 3.1 2.18 3.54-.4.33-1.87-2.48-3.22-3.75-1.75zM2.94 76.65a2.71 2.71 0 0 0-1.84-.23c.6-.7.43-1.37 1.84-1.15zm4.61-5.52c.45 1.51-1.2.87-1.85 1.14q.14-1.85 1.84-1.15zM6.39 81.25c-.12-3.9 2.78-.31 0 0zm2.07-4.14c-1.19 0-.91-1.56-2.07-1.61.06.69 1.61 1.5 1.15 2.3a7.19 7.19 0 0 0-1.38-1.61c-.59.48.82 1.05.69 1.61-.47.13-3.35-.62-2.3-2.3 1.31-2.09 5.01-1.04 3.91 1.61zM70.38 148s.8 2.78.91 1.15c1.55 3.33-5.13-.46-.91-1.15zm12-.46c.33.65.76 2.16.11 2.78-1.2 1.14-1.3-1.45-2.4-1.63a1.68 1.68 0 0 1 2.25-1.15zm65.14-74.8c-.95-.21-1.9-.4-1.84-1.62.94-.63 2.22.11 1.8 1.62zM16 106.1c-.06-.1 0-.02 0 0zM9.45 81.16q.73-1.06.23 2zm-.31-3.85l.34 1.35a1.28 1.28 0 0 1-.33-1.34zm.67-5.58Q9.5 73 9.23 74.31c.13-2.2.34-4.41.65-6.59.25.75-.88 3.61-.06 4.01zm-.27 8.35q-.45 1.3-.3-1.1zm4.94 21.32c.07.3-.37.71-.06.18a1 1 0 0 1 .42 1.09 2 2 0 0 1-1-1.64q.4-.6.65.37zm.52 2q-.7-.19-.64-1.13zm7.29-65l.82-1.08c.47-.07-1.24 1.49-.81 1.08zm1.92-2.47zm77.34-19.33s1.59.48.34.12a57.77 57.77 0 0 1 7.53 3.72c-1.7-.71-3.44-1.17-5.17-1.77-.49-.36.68-.08.7-.08-.87-.52-2.28-1.25-3.12-1.65-.4-.19-3.23-.8-.76-.49Q99.53 16 98 15.71a1.29 1.29 0 0 1 1.11 0c-.68-.18-2.74-1-3.51-.69.52.1 2.2.09 2.33.75l-.75-.19c.77 1.08 3.26 1.07 4.4 1.53l-.76.15c.52.08 2.56 1 1.27.56a10.63 10.63 0 0 0 2.66 1.18q-.2.29-.54 0c.77.46 3 1.43 3.29 1.65 1 .46 7.8 3.12 7.67 4.69q.14-.28-.2-.43a23.11 23.11 0 0 0 2.72 2.09 3.79 3.79 0 0 1-.81-.35c.79-.71 10.69 10.12 11.35 10.89-1.08.53-.53-.76.82 1.33-.62-1 1 1.57 1.48 2.18s3.25 3.66 1.76 2.39c11.53 19.55 12.49 44.83.66 65-10.64 18.11-27.38 29.79-46.62 32.63 1-.46-5.66.3-1.5-.18-2.18-.68-6 .75-7.61.82a55.35 55.35 0 0 1-7.16-.33 36.24 36.24 0 0 1 4-.3 10.62 10.62 0 0 0-3.46 0c3.28-.09-2.46.1-3.14 0s-2.06-.76-2.9-1a110.89 110.89 0 0 1-10.66-3.4 62.61 62.61 0 0 0 32 3.39 64.73 64.73 0 0 1-58.57-22.63 59.71 59.71 0 0 0 10.45 10.38c-3.84-2.78-6.91-4.87-9.42-8.16l.64.34c-7-8.2-13.75-19-15.68-28.33.8-1.92-1.25-6.55-1.41-8.8a75 75 0 0 1 .23-13l.12.48c.44-3 1.53-9.43 1.84-10.72 1.77-7.3 5-17.22 10.54-21.62q-.94 1.25-1.9 2.47c.28.19 1.13-1.05.73.14.13-.27 5.51-7.72 5.64-7.56-.16-.21-2.5 2.57-2.16 2.19 1.36-2.59 3.61-3.64 5.76-5.48.94-.81 4.88-5.26 3.62-3.19.34-.34 3.13-3.12 3.61-2.92 1.15.47 6.46-3.8 8.8-4.93 4.68-2.25 13.1-4.3 19.93-5.3a70.44 70.44 0 0 1 12.05-.29c1.71 0 7.05.32 8.73 1.1a1.91 1.91 0 0 1-1.09-.46 16.16 16.16 0 0 0 2.29-.49c-1-.26-1.45-.58-2.46-.91a56.25 56.25 0 0 1 13.38 4.14q-1-.2-.02.08zm17.21 10.61q.81.8-.82-.35zm-5.39-4.32l.82.56c-.27-.16-.54-.35-.82-.55zm26.88 71.54q-1 1.18.09-1.22a1.91 1.91 0 0 1-.09 1.22zm-2.39 6.46a8.11 8.11 0 0 1-1 2q1.23-3.81 1-2zm-3.17 6.79a4.7 4.7 0 0 1-.75 1.77l.13-.53c-.07.27-1.86 3.45-2.44 3.44 1.29-2 2.51-4.09 3.63-6.21-.07.32-1.26 3.38-.56 1.53zm-3.55 5.71q-.61 1 .08.5-1.18 1.45-2.26 3a13.3 13.3 0 0 1 1.37-2.5l-.47 1zM102 136.68zm39.74-50.82a16 16 0 0 0 .27-2.68c.08.79.83 2.66 0 3.5a.58.58 0 0 1-.32-.83zm.48-6.7a4.67 4.67 0 0 1 .11-1.73q.85.37-.16 1.72zm-.26-8.05l-.11-1.17q.55 1.6.06 1.16zm-.32-2.92c-.07-.25.02.07-.04-.01zm-.35-2.4l-.36-2c.07.21.53 2.53.31 1.99zm-.47-2.58l-.5-2.28a3 3 0 0 1 .45 2.27zm-89.2 73.19c-1.07-.36-2.1-1.74-3.31-2 .15 0 1.31.48.41 0a33.82 33.82 0 0 0 4.09 2.12 1.07 1.07 0 0 0-1.24-.13zM47 133.68a5 5 0 0 1-2.15-1.27 20.59 20.59 0 0 1 2.15 1.27zm-8.58-5.43l1 .75c.71.34-1.91-1.27-.97-.75zm-11-93.15a1 1 0 0 0 .55-.71q.11.51-.48.71zm58.94-22.73c.39-.26-7.22-1.35 1.62 0zm-1-.27c-.22-.22.64-.1-.02 0zM82.9 12q.18-.53.87-.12zm-.48-.23c.65.55-1.8-.22-1.25-.09zm-2-.08s.68-.09 0-.01zm-2.29 0c-.6-.26.35-.25.01-.06zm35.08 119.7c.33-.1-.21.11 0-.06zm23.33-24.6c.46-1.61.2-.46 0-.06zm4.52-10.84q.34-1.8.84-3.56c.25.85-.71 2.71-.85 3.5zm1.73-10.81a9.39 9.39 0 0 1 .43-2 7.29 7.29 0 0 1 0-2.29c-.1.17 0 4.64-.26 5.89-.03-1.38-.48-.01-.17-1.66zm.53-15.25c0 .05 0 2.35.12 1.23q.18 2.23.22 4.47-.08-.34-.3-.13-.12-1.64.11-.51c0-2.09-.46-4.13-.64-6.21.09-.26.51 1.08.48 1.09zm.34 6.2v1.09c-.12-.18-.46-1.37-.01-1.18zm-.29 1a8.38 8.38 0 0 1 .24 3.07 12.54 12.54 0 0 0-.25-3.16zM81.52 5.7q1.86.14 1.15 1.84c-1.51.46-.91-1.19-1.15-1.84zm-4.14-4.6c.89.75 2.27 1.84-.23 1.84a2.71 2.71 0 0 0 .23-1.84zm-.69 4.83c-1.31 0 .1-1.26.87-1.3 1.4-.08 2.09 1.8 1.9 3.15-.08.53-2.41.51-2.72.45a8.08 8.08 0 0 0 1.56-1.84c-.69.06-1.53 1.61-2.3 1.15a7.19 7.19 0 0 0 1.61-1.38c-.48-.59-1.05.82-1.61.69a.73.73 0 0 1 .68-.92zm-3.91 0c4.33 0-1.08 4.24-.01 0zm-.23 3.5c1.14-.06 4.59-.86 4.38.88 4.91-3.7 18.39 1.29 23.83 3.4A67 67 0 0 1 121 26.12a67.81 67.81 0 0 1 22.16 42.33c-.49-2.49-1.31-4.89-1.88-7.36l.1.51c-.8-.3-3.18-9.57-3.56-10.4-2-4.28-5.17-7.84-7.25-12.2q.12.46.47.45c-17.8-23.79-48.4-35.14-77.27-24.68a3.09 3.09 0 0 1 .76-.46 56.89 56.89 0 0 0-12.1 6 1 1 0 0 1 .45-.35c0 .08-4.48 2.93-4.59 3-1.93 1.37-4 3.48-6 4.69l.21-.65c-1 .83-1.4 1.81-2.5 2.6q.45-.55.92-1.08C25.72 31.59 20.8 39 17.65 44.53c-.79 1.38-3.22 9-4.17 9.12-1.85 4-2.13 8.74-3.54 13.64 4.67-31.52 30.67-55.98 62.6-57.86zM75 151.22c.17 0 .19.18.21.34a1 1 0 0 1-.21-.34zm1.15 5.3c-.45-.45-.07-2.21-.92-2.3.97 0 3.14 1.68.9 2.3zm2.53-6c0 1.31-2.63 1.78-3.37 1.14 1.5-.08-.68-1.25-.08-1.83a.87.87 0 0 0-1.15.46c-.37-1.52 1.35-6 3.45-3.23-.71 1-2 1.41-2.3 2.77 1-.27 2-2.37 3.22-2.07-.3 1.5-2.39 1-2.3 2.76a6.42 6.42 0 0 1 2.53-1.61 6.7 6.7 0 0 1-1.39 1.84c.51.16.97-.64 1.37-.22zm-15.19-7.6c-19.41-3.29-37.86-17.55-46.59-35a61.78 61.78 0 0 0 13.56 16.64q-.37-.24-.23-.55c3.28 2.69 7.82 9.1 12.58 9.79 1 .14 7.42 4.06 10 5.17a67.91 67.91 0 0 0 7.86 2.5c-.07-.24 7.47 1.2 9.07 1.43 4.91.71 9.59-.36 14.18 0l-.81.39c4.7-.77 9.54-1.24 14-3-.94.62 5.41-1.57 6-1.83 3.2-1.35 6.24-3.62 9.37-4.92-14.48 9.34-32.11 12.27-49.01 9.39zm79.29-54.28l.25-1.79q-.11.92-.27 1.81zm2.19-14.76c-.1-.42-.18-.84-.27-1.26.35.56 1.03.93.25 1.27zm2.03 7.37c-1.78.33-1.94-1-1.38-2.07 1.61-.03 2 .88 1.38 2.07zm.46-3.45c-.06-1.42-.37.32-1.15 0a3.7 3.7 0 0 1 .92-1.38 1.52 1.52 0 0 0-1.38 1.38c-1-.57.93-1.72.92-2.3a11 11 0 0 1-2.07 1.61 1.46 1.46 0 0 1 .92-1.38.93.93 0 0 0-.92-.23c.87-3.16 6.16.81 2.78 2.3zm4.6-1.15c-1 1-2.7-.34-1.61-1.38.93-.01 1.81.29 1.63 1.38z"
          class="cls-1"/>
    <path d="M24.05 113c1 1.49 2.13 2.94 3.29 4.34-1.12-1.34-2.21-2.85-3.29-4.34z" class="cls-1"/>
    <path d="M135.95 76v-.77l-1.23-.23h-.08l-32.08-6.35 12.33-8.27-.31-.69-.84.15L98.13 63l15.69-23.58-.54-.54-.92.61-22.65 15.04L93 38.07l-.69-.31-.54.77L84 50.09l-6.62-33.38h-.77l-.23 1.22L70 50.09l-8.23-12.32-.77.31.23.84h-.08l3.14 15.62-23.58-15.7-.54.54.61.92L55.87 63l-16.46-3.34-.31.69.77.54 11.56 7.73-33.38 6.66V76l1.22.23h.08l32.08 6.47-12.32 8.2.31.77.92-.23v.08l15.54-3.06-15.69 23.5.54.54.92-.61 22.64-15.18L61 113.25l.77.23.46-.69L70 101.23l6.66 33.38h.77l.23-1.3v-.08l6.43-32 8.27 12.33.69-.31-.23-.84.08-.08-3.12-15.54 23.5 15.69.54-.54-.61-.92-15.16-22.73 16.54 3.29.31-.69-.77-.46v-.08l-11.56-7.65z"
          class="cls-2"/>
    <path d="M57.78 67.32l1.15-.15-2.22-3.37L42.47 61zM89 55.15L91.77 41 85.5 56.22l.23 1.15L89 55.15zm6.51 28.94l2.14 3.37 14.24 2.76-15.29-6.29-1.07.15zm-30.09 12l-2.83 14.16L69 95l-.23-1.15zm4.52-45L63 40.75l6.12 14.62zm31.77 17.3l10.33-7-14.62 6zm-17.3 31.69l7 10.41-6-14.7-.92 4.29zM52.73 82.86l-10.41 7 14.7-6-4.29-.92zm35.06-17.53l-9.34 9.34.23-.08 11.56-8.5 4.44.84 17.15-25.65-24 24zm.15 21.28l-9.72-9.72v.23l8.5 11.48-.84 4.4 25.65 17.15-23.58-23.54zm-21.28-.69L76 76.58l-.23.08-11.56 8.5-4.44-.84L42.63 110l24-24zm.23-20.82l9.34 9.34-.08-.31-8.5-11.48.92-4.44-25.71-17.15 24 24zm12.17 6.58L86 62.42l-.54-2.6-8-40.34V74zM92 75.74H78.84l11.56 8.57 43-8.57zM76.54 78l-8 10.87 8.57 43v-54.6l-.54.69zm-14.16-2.49h13.24l-11.56-8.58L21 75.51z"
          class="cls-3"/>
</svg>
