<svg xmlns="http://www.w3.org/2000/svg" viewBox="0 0 30.88 30.88">
    <title>being-human</title>
    <g id="Layer_2" data-name="Layer 2">
        <g id="Capa_1" data-name="Capa 1">
            <path d="M17.38,14.64h0a2.1,2.1,0,1,0-1.14,2.74A2.1,2.1,0,0,0,17.38,14.64Zm-1.57,1.69a1,1,0,1,1,.52-1.25A.95.95,0,0,1,15.81,16.33Z"/>
            <path d="M11.52,6a10.25,10.25,0,1,0,13.39,5.55A10.18,10.18,0,0,0,11.52,6ZM24.31,17.5l-4.78-2q0-.08,0-.16l4.79-2A9.06,9.06,0,0,1,24.31,17.5Zm-11.58-.94a2.94,2.94,0,1,1,3.84,1.59A2.94,2.94,0,0,1,12.73,16.57ZM7,18.93l-.12-.32,4.65-1.93c0,.11.07.22.12.32s.09.21.15.31L7.17,19.24Zm-.46-5.55,4.79,2c0,.05,0,.11,0,.16l-4.79,2A9,9,0,0,1,6.57,13.38Zm.6-1.73,4.65,1.93a4.11,4.11,0,0,0-.26.63L6.9,12.28,7,12ZM23.86,12l.12.32L19.33,14.2c0-.11-.07-.22-.12-.32s-.09-.21-.15-.31l4.65-1.93Zm-7.17-.4,1.92-4.65.63.26-1.93,4.65A4.12,4.12,0,0,0,16.68,11.56ZM19.21,17c0-.11.08-.21.12-.32L24,18.6q-.12.32-.26.63l-4.65-1.92C19.12,17.21,19.17,17.11,19.21,17Zm4-6.37-4.79,2-.11-.11,2-4.79A9.06,9.06,0,0,1,23.17,10.63ZM17.5,6.58l-2,4.79h-.16l-2-4.79a9,9,0,0,1,4.13,0Zm-5.23.33,1.93,4.65-.32.12-.31.15L11.64,7.17,12,7Zm-1.65.81,2,4.79-.11.11-4.79-2A9,9,0,0,1,10.63,7.71ZM7.71,20.25l4.79-2,.11.11-2,4.79A9,9,0,0,1,7.71,20.25Zm3.93,3.46,1.93-4.65.31.15.32.12L12.28,24,12,23.85Zm1.74.6,2-4.79h.16l2,4.79A9,9,0,0,1,13.38,24.31ZM18.61,24l-1.93-4.65.32-.12.31-.15,1.93,4.65-.31.14Zm1.65-.81-2-4.79.11-.11,4.78,2A9.06,9.06,0,0,1,20.25,23.17Z"/>
            <path d="M30,19.85,27.86,19a12.78,12.78,0,0,0,0-7.07L30,11a1.49,1.49,0,0,0-1.14-2.75l-2.11.87a12.78,12.78,0,0,0-5-5l.87-2.11A1.49,1.49,0,1,0,19.85.92L19,3a12.78,12.78,0,0,0-7.07,0L11,.92A1.49,1.49,0,0,0,8.29,2.06l.87,2.11a12.85,12.85,0,0,0-5,5L2.06,8.29A1.49,1.49,0,1,0,.92,11L3,11.91A12.85,12.85,0,0,0,3,19l-2.11.87A1.49,1.49,0,0,0,2.06,22.6l2.11-.87a12.78,12.78,0,0,0,5,5l-.87,2.11A1.49,1.49,0,0,0,11,30l.87-2.11a12.76,12.76,0,0,0,7.07,0L19.85,30a1.49,1.49,0,1,0,2.75-1.14l-.87-2.11a12.78,12.78,0,0,0,5-5l2.11.87A1.49,1.49,0,1,0,30,19.85Zm-.7-10.5a.34.34,0,1,1,.26.63l-2,.84-.13-.32-.14-.32Zm-8.36-8a.34.34,0,1,1,.63.26l-.84,2-.32-.14-.32-.13ZM9.35,1.62A.34.34,0,0,1,10,1.36l.84,2-.32.13-.32.14ZM1.36,10a.34.34,0,1,1,.26-.63l2,.84q-.14.31-.26.63Zm.26,11.56a.34.34,0,1,1-.26-.63l2-.84.13.32.14.32Zm8.36,8a.34.34,0,0,1-.63-.26l.84-2,.32.14.32.13Zm11.56-.26a.34.34,0,0,1-.63.26l-.84-2,.32-.13.32-.14Zm-1.6-3a11.77,11.77,0,1,1,6.37-6.37A11.69,11.69,0,0,1,19.94,26.31Zm9.77-5a.34.34,0,0,1-.45.19l-2-.84.14-.32.13-.32,2,.84A.34.34,0,0,1,29.71,21.35Z"/>
        </g>
    </g>
</svg>