<svg xmlns="http://www.w3.org/2000/svg" viewBox="0 0 30.57 25.98">
    <title>case-study</title>
    <g id="Layer_2" data-name="Layer 2">
        <g id="Capa_1" data-name="Capa 1">
            <path d="M30.06,14.67a2.2,2.2,0,0,0-1.33.42,1.3,1.3,0,0,1-1.56,0,2.31,2.31,0,0,0-2.67,0,1.3,1.3,0,0,1-1.56,0,3.1,3.1,0,0,0-.43-.24l.15-.15a3.83,3.83,0,0,0,1-3.71,2.81,2.81,0,0,1,.72-2.72L25,7.63l.13.13a.51.51,0,0,0,.72,0l1.84-1.84a.51.51,0,0,0,0-.72l-.38-.38,1.62-1.25a.51.51,0,0,0,0-.77L26.35.15a.51.51,0,0,0-.77,0L24.33,1.82,24,1.44a.51.51,0,0,0-.72,0L21.39,3.28a.51.51,0,0,0,0,.72l.13.13-.63.63a2.81,2.81,0,0,1-2.72.72,3.83,3.83,0,0,0-3.71,1L5.93,15a2.12,2.12,0,0,0-1.2-.34,2.2,2.2,0,0,0-1.33.42,1.2,1.2,0,0,1-.78.26,1.2,1.2,0,0,1-.78-.26,2.2,2.2,0,0,0-1.33-.42.51.51,0,1,0,0,1,1.2,1.2,0,0,1,.78.26,2.2,2.2,0,0,0,1.33.42A2.2,2.2,0,0,0,4,15.95a1.2,1.2,0,0,1,.78-.26,1.18,1.18,0,0,1,.44.07L3.74,17.19a1.93,1.93,0,0,0,0,2.73l5.49,5.49a1.93,1.93,0,0,0,2.73,0l9.72-9.72a1.21,1.21,0,0,1,.72.26,2.31,2.31,0,0,0,2.67,0,1.3,1.3,0,0,1,1.56,0,2.31,2.31,0,0,0,2.67,0,1.2,1.2,0,0,1,.78-.26.51.51,0,1,0,0-1ZM26,1.28l1.83,1.83-1.26,1L25.06,2.55ZM23.59,2.52l3,3L25.51,6.67l-3-3ZM15.18,7.2a2.81,2.81,0,0,1,2.72-.72,3.83,3.83,0,0,0,3.71-1l.63-.63L24.3,6.91l-.63.63a3.83,3.83,0,0,0-1,3.71A2.81,2.81,0,0,1,22,14l-.73.73a2.25,2.25,0,0,0-.94.39,1.3,1.3,0,0,1-1.56,0,2.36,2.36,0,0,0-.78-.36l3.34-3.34h0a3,3,0,0,0,.87-2.1.51.51,0,0,0-.51-.51h0a.51.51,0,0,0-.51.51,1.94,1.94,0,0,1-1.94,1.94H19l1.4-1.4a.51.51,0,0,0,.15-.36A1.77,1.77,0,0,0,18.8,7.69a2.07,2.07,0,0,0-1.47.61h0l-6.88,6.88-.15-.1a2.31,2.31,0,0,0-2.67,0,1.26,1.26,0,0,1-.58.25Zm-4.46,9.15.34,0a2.2,2.2,0,0,0,1.33-.42,1.3,1.3,0,0,1,1.56,0,2.26,2.26,0,0,0,.93.39l-4.22,4.22a1.93,1.93,0,0,1-1.37.57h0a1.45,1.45,0,0,1-1.45-1.45,1.05,1.05,0,0,1,.31-.75Zm5.34-1.26a1.3,1.3,0,0,1-1.56,0,2.19,2.19,0,0,0-1.33-.42,2.12,2.12,0,0,0-1,.22l4.58-4.58A2.47,2.47,0,0,0,19,12.24L16.26,15Zm1.67-5.31A1.06,1.06,0,0,1,18.8,8.72a.75.75,0,0,1,.72.56l-1.44,1.44A1.45,1.45,0,0,1,17.73,9.78Zm-6.5,14.91a.91.91,0,0,1-1.28,0L4.46,19.2a.91.91,0,0,1,0-1.28l1.66-1.66a2.25,2.25,0,0,0,.73.11,2.2,2.2,0,0,0,1.33-.42A1.2,1.2,0,0,1,9,15.69a1.17,1.17,0,0,1,.75.24L7.43,18.2a2.07,2.07,0,0,0-.61,1.47,2.47,2.47,0,0,0,2.47,2.48h0a3,3,0,0,0,2.1-.87l5.49-5.49a1.11,1.11,0,0,1,.52-.1,1.2,1.2,0,0,1,.78.26,2.19,2.19,0,0,0,1.33.42h0Z"/>
        </g>
    </g>
</svg>