<svg xmlns="http://www.w3.org/2000/svg" viewBox="0 0 22.69 25.45">
    <title>development</title>
    <g id="Layer_2" data-name="Layer 2">
        <g id="Capa_1" data-name="Capa 1">
            <path d="M22.58,22.44a1.3,1.3,0,0,0-1.12-.78l.15-.37a.45.45,0,1,0-.84-.33l-.08.21-4.37-1.69.37-1a.45.45,0,0,0-.84-.33l-.23.59a12.76,12.76,0,0,1-1.56-1,20.09,20.09,0,0,0,2.07-2.26,19.06,19.06,0,0,0,3.46-7.08A19.24,19.24,0,0,0,20,.36a.45.45,0,0,0-.87,0,8.13,8.13,0,0,1-4,4.63.45.45,0,0,0-.27.37A19,19,0,0,1,11.35,15,19,19,0,0,1,7.86,5.31a.45.45,0,0,0-.27-.37,8.12,8.12,0,0,1-4-4.63.45.45,0,0,0-.87,0,18.51,18.51,0,0,0,0,6A19.24,19.24,0,0,0,8.64,17.75a12.84,12.84,0,0,1-1.56,1l-.23-.6a.45.45,0,1,0-.84.33l.37,1L2,21.17,1.93,21a.45.45,0,0,0-.84.33l.15.37a1.31,1.31,0,0,0-.4.09h0a1.31,1.31,0,1,0,1.34,2.19,3.24,3.24,0,0,0,6-2.13,26.62,26.62,0,0,0,3.21-1.88,26.8,26.8,0,0,0,3.21,1.88,3.25,3.25,0,0,0,6,2.13,1.31,1.31,0,0,0,2.06-1.5ZM20,23l-.82-.32.37-1,.82.32Zm-1.29-1.6-.37,1-1-.4.37-1Zm-1.89-.73-.37,1-.82-.32.37-1ZM5.3,11.76A18.66,18.66,0,0,1,3.61,6.3a19.58,19.58,0,0,1-.18-4.14A9.07,9.07,0,0,0,7,5.65a19.65,19.65,0,0,0,3.78,10.08,14.24,14.24,0,0,1-1.42,1.44A18.57,18.57,0,0,1,5.3,11.76ZM12,15.68a19.7,19.7,0,0,0,3.74-10,9.07,9.07,0,0,0,3.56-3.49,19.62,19.62,0,0,1-.56,6,18.16,18.16,0,0,1-3.3,6.74,21.94,21.94,0,0,1-7.5,6l-.41-1.06-.08-.21A14.59,14.59,0,0,0,12,15.68Zm-4.9,5.59-.82.32-.37-1,.82-.32Zm-2.7,1-.37-1L5,21l.37,1ZM3.16,21.7l.37,1L2.71,23l-.37-1ZM1.67,23.12a.4.4,0,1,1-.51-.54h0l.14,0a.4.4,0,0,1,.37.26h0A.4.4,0,0,1,1.67,23.12Zm4.1,1.26a2.34,2.34,0,0,1-2.59-.63l4.09-1.59A2.34,2.34,0,0,1,5.77,24.39Zm7.6-6a13.68,13.68,0,0,0,1.92,1.27l-.1.25-.4,1a26,26,0,0,1-2.66-1.55Q12.77,18.88,13.37,18.37Zm5.35,6a2.34,2.34,0,0,1-3.28-2.17l4.09,1.59A2.33,2.33,0,0,1,18.72,24.34Zm3-1.24a.4.4,0,1,1-.37-.55l.14,0a.4.4,0,0,1,.23.52Z"/>
        </g>
    </g>
</svg>