<svg xmlns="http://www.w3.org/2000/svg" viewBox="0 0 20.74 26.1">
    <title>devops</title>
    <g id="Layer_2" data-name="Layer 2">
        <g id="Capa_1" data-name="Capa 1">
            <path d="M12.71,4.33a2.34,2.34,0,1,0-2.34,2.34A2.34,2.34,0,0,0,12.71,4.33Zm-3.78,0a1.44,1.44,0,1,1,1.44,1.44A1.44,1.44,0,0,1,8.93,4.33Z"/>
            <path d="M20.74,15.43l-.43-4.85a.45.45,0,0,0-.79-.26l-3.34,3.88a.45.45,0,0,0,.41.74l.82-.12,0,.17a6.14,6.14,0,0,1-5.44,4.42V13.18q1.64-.08,3.28-.31a.45.45,0,0,0,.39-.45V10.71a.45.45,0,0,0-.39-.45Q13.54,10,11.9,10V8.39a4.33,4.33,0,1,0-3.06,0V10q-1.64.08-3.28.31a.45.45,0,0,0-.39.45v1.72a.45.45,0,0,0,.39.45q1.63.24,3.28.31v6.24A6.14,6.14,0,0,1,3.39,15l0-.17.82.12a.45.45,0,0,0,.41-.74L1.23,10.33a.45.45,0,0,0-.79.26L0,15.43a.45.45,0,0,0,.77.36l.28-.28a14.78,14.78,0,0,0,6.65,9L10.13,26a.45.45,0,0,0,.47,0L13,24.55a14.75,14.75,0,0,0,6.65-9l.28.28a.45.45,0,0,0,.77-.36ZM6.94,4.33a3.43,3.43,0,1,1,3.43,3.43A3.43,3.43,0,0,1,6.94,4.33Zm2.8,4.29a4.3,4.3,0,0,0,1.25,0v1.3H9.74ZM6.08,11.1a32.63,32.63,0,0,1,8.58,0V12a32.62,32.62,0,0,1-8.58,0V11.1Zm13.21,3.07a.45.45,0,0,0-.31.35,13.85,13.85,0,0,1-6.41,9.25l-2.2,1.33-2.2-1.33a13.87,13.87,0,0,1-6.41-9.25A.45.45,0,0,0,1,14.27l.23-2.54L3.1,13.89l-.31,0a.45.45,0,0,0-.5.57l.24.84a7,7,0,0,0,6.77,5.09.45.45,0,0,0,.45-.45V13.21H11v6.68a.45.45,0,0,0,.45.45,7,7,0,0,0,6.77-5.09l.24-.84a.45.45,0,0,0-.5-.57l-.31,0,1.86-2.15.23,2.54A.45.45,0,0,0,19.29,14.18Z"/>
        </g>
    </g>
</svg>