<svg xmlns="http://www.w3.org/2000/svg" viewBox="0 0 28.76 31.91">
    <title>frontend</title>
    <g id="Layer_2" data-name="Layer 2">
        <g id="Capa_1" data-name="Capa 1">
            <path d="M10.42,25a.57.57,0,0,0-.81,0L8.33,26.25,7.06,25a.57.57,0,1,0-.81.81l1.27,1.27L6.25,28.34a.57.57,0,1,0,.81.81l1.27-1.27,1.27,1.27a.57.57,0,0,0,.81-.81L9.14,27.06l1.27-1.27A.57.57,0,0,0,10.42,25Z"/>
            <path d="M12.51,26.59H11.33a.57.57,0,0,0,0,1.14h1.18a.57.57,0,1,0,0-1.14Z"/>
            <path d="M23.88,22.43V23A.57.57,0,0,0,25,23v-.55a4.49,4.49,0,0,0-.47-2,.57.57,0,1,0-1,.51A3.36,3.36,0,0,1,23.88,22.43Z"/>
            <path d="M20.76,27.19a.57.57,0,0,0,.56.45h.12a4.52,4.52,0,0,0,2.33-1.31.57.57,0,0,0-.83-.79,3.38,3.38,0,0,1-1.74,1A.57.57,0,0,0,20.76,27.19Z"/>
            <path d="M15.73,26.59a.57.57,0,0,0,0,1.14h2.38a.57.57,0,0,0,0-1.14Z"/>
            <path d="M20.48,19a3.4,3.4,0,0,1,1,.15l.17,0a.57.57,0,0,0,.17-1.12,4.54,4.54,0,0,0-1.33-.2.57.57,0,1,0,0,1.14Z"/>
            <path d="M28.19,9.1H16.1L15.83,8A3.25,3.25,0,0,0,15,1.86V.57a.57.57,0,1,0-1.14,0V1.86A3.25,3.25,0,0,0,12.92,8L12.66,9.1h-5a.57.57,0,0,0-.55.4l-.43,1.42-.4-1.3a.57.57,0,0,0-.55-.4h0a.57.57,0,0,0-.55.4l-.66,2.15L3.86,9.5a.57.57,0,0,0-.55-.4H.57A.57.57,0,0,0,0,9.67V31.33a.57.57,0,0,0,.57.57H23.62a.57.57,0,0,0,.55-.4l.42-1.36L25,31.5a.57.57,0,0,0,.55.4h2.63a.57.57,0,0,0,.57-.57V9.67A.57.57,0,0,0,28.19,9.1Zm-15.91-4a2.11,2.11,0,0,1,1.53-2v.76a.57.57,0,1,0,1.14,0V3a2.1,2.1,0,1,1-2.68,2Zm2.47,3.25,2.16,9.17h-.54l-1.42-6a.57.57,0,0,0-1.11,0l-1.42,6h-.54L14,8.31Zm0,7.47H14l.4-1.7Zm12.83,15H26L25.14,28A.57.57,0,0,0,24,28l-.84,2.75H1.14V10.24H2.89L4,13.89a.57.57,0,0,0,.55.4h0a.57.57,0,0,0,.55-.4l.66-2.15L6.16,13a.57.57,0,0,0,1.09,0l.86-2.8h4.27l-1.81,7.67a.57.57,0,0,0,.56.7h.14l-.8,3.4a.57.57,0,0,0,.43.69l.13,0a.57.57,0,0,0,.56-.44l.86-3.66h.41a.57.57,0,0,0,.56-.44l.3-1.25H15l.3,1.25a.57.57,0,0,0,.56.44h.41l.86,3.66a.57.57,0,0,0,.56.44l.13,0a.57.57,0,0,0,.43-.69l-.8-3.4h.14a.57.57,0,0,0,.56-.7l-1.81-7.67H27.61V30.76Z"/>
        </g>
    </g>
</svg>