<svg xmlns="http://www.w3.org/2000/svg" viewBox="0 0 26.62 32.58">
    <title>other</title>
    <g id="Layer_2" data-name="Layer 2">
        <g id="Capa_1" data-name="Capa 1">
            <path d="M13.94,8.11a2.38,2.38,0,1,0,2.38,2.38A2.38,2.38,0,0,0,13.94,8.11Zm0,3.62a1.24,1.24,0,1,1,1.24-1.24A1.24,1.24,0,0,1,13.94,11.73Z"/>
            <path d="M26.45,27.46l-.28-.27h0a9.27,9.27,0,0,1-2.82-6.63v-2.5a12.89,12.89,0,0,0-4.52-9.81l2-2.83a.57.57,0,0,0-.1-.77,12.56,12.56,0,0,0-1.12-.84l.14-.34a2.52,2.52,0,1,0-4.65-1.93l-.16.39-.77-.12-.36,0a.57.57,0,0,0-.63.47l-.53,3.08a12.94,12.94,0,0,0-2.2-.19H8.3A8.31,8.31,0,0,0,0,13.45.57.57,0,0,0,.57,14h9.3v1.51a12.92,12.92,0,0,0,6.8,11.37v3.54H14.45a1.15,1.15,0,0,0-.82,2,.57.57,0,0,0,.81,0,.57.57,0,0,0,0-.81h2.81a1.44,1.44,0,0,1,1,.42l.09.09a.57.57,0,0,0,.81-.81l-.1-.1a2.57,2.57,0,0,0-1.26-.7V27.45a12.84,12.84,0,0,0,5,1h3.27a.57.57,0,0,0,.4-1ZM16.15,2A1.37,1.37,0,1,1,18.69,3l-.08.19a12.44,12.44,0,0,0-2.55-1ZM14.2,3a11.33,11.33,0,0,1,5.38,2.22l-.34.48A12.43,12.43,0,0,0,14.1,3.57ZM13.91,4.7a11.3,11.3,0,0,1,4.67,1.92l-.65.92a12.86,12.86,0,0,0-4.17-2ZM8.3,6.29H9.87V9.93a17.46,17.46,0,0,0-8.63,2.37A7.17,7.17,0,0,1,8.3,6.29ZM2.53,12.88c.25-.13.54-.27.85-.41a17.39,17.39,0,0,1,6.49-1.4v1.81H2.53Zm8.5,3.3a9.21,9.21,0,0,1,8,5.91L21,27.16A11.79,11.79,0,0,1,11,16.18ZM22.78,27.3h-.52l-2.13-5.6A10.36,10.36,0,0,0,11,15V6.31A11.78,11.78,0,0,1,22.21,18.06v2.5A10.42,10.42,0,0,0,24.7,27.3H22.78Z"/>
            <path d="M13.6,10a.57.57,0,1,0,.9.58A.58.58,0,0,0,13.6,10Z"/>
        </g>
    </g>
</svg>