<svg xmlns="http://www.w3.org/2000/svg" viewBox="0 0 32.54 25.18">
    <title>performance</title>
    <g id="Layer_2" data-name="Layer 2">
        <g id="Capa_1" data-name="Capa 1">
            <path d="M7.2,13.85A.53.53,0,1,0,6.81,13,.54.54,0,0,0,7.2,13.85Z"/>
            <path d="M32.39,11l-.2-.2A5.84,5.84,0,0,0,26,9.46,5.84,5.84,0,0,0,24.7,3.31l-.2-.2a.53.53,0,0,0-.75,0l-.2.2a5.84,5.84,0,0,0-.6,7.54H1.88A1.88,1.88,0,0,0,0,13,12.39,12.39,0,0,0,12.28,23.75a12.52,12.52,0,0,0,1.66-.11,5.13,5.13,0,0,0,3.67,1.54.53.53,0,0,0,.53-.53,5.14,5.14,0,0,0-.46-2.14,12.36,12.36,0,0,0,6.92-10A5.84,5.84,0,0,0,32.19,12l.2-.2A.53.53,0,0,0,32.39,11ZM24.12,4.25a4.77,4.77,0,0,1,0,6.37A4.77,4.77,0,0,1,24.12,4.25Zm-8,16.32a.53.53,0,0,0-.65.84A4.05,4.05,0,0,1,17,24.08a4.09,4.09,0,0,1-3.51-4,.53.53,0,0,0-1.06,0,5.11,5.11,0,0,0,.72,2.61c-.3,0-.6,0-.9,0A11.34,11.34,0,0,1,1.56,15a38.13,38.13,0,0,1,16.58,4.17l1.53.78a11.31,11.31,0,0,1-2.54,1.66A5.2,5.2,0,0,0,16.13,20.57Zm4.36-1.41-1.86-1A39.19,39.19,0,0,0,1.26,13.92q-.12-.53-.19-1.08a.81.81,0,0,1,.2-.65.81.81,0,0,1,.61-.28h21.7A11.3,11.3,0,0,1,20.49,19.16Zm4.39-7.78a4.77,4.77,0,0,1,6.37,0A4.77,4.77,0,0,1,24.88,11.38Z"/>
            <path d="M6.05,4.8a4.85,4.85,0,0,1,2.86.92.53.53,0,1,0,.62-.86A5.91,5.91,0,0,0,6.05,3.74a.53.53,0,0,0,0,1.06Z"/>
            <path d="M9.92,5.86a.53.53,0,0,0-.08.75,4.9,4.9,0,0,1,1.09,3.08.53.53,0,1,0,1.06,0,6,6,0,0,0-1.33-3.76A.53.53,0,0,0,9.92,5.86Z"/>
            <path d="M7.7,1a6.53,6.53,0,0,1,3.37,2.91A.53.53,0,1,0,12,3.42,7.59,7.59,0,0,0,8.08,0,.53.53,0,1,0,7.7,1Z"/>
            <path d="M11.67,5.37c0,.17.09.34.12.5a.53.53,0,0,0,.52.43h.1a.53.53,0,0,0,.42-.62c0-.2-.09-.39-.14-.59a.53.53,0,0,0-1,.29Z"/>
            <path d="M18.07,4.82h0l.42,0a.53.53,0,0,0,0-1.06l-.51,0a.53.53,0,0,0,0,1.06Z"/>
            <path d="M13.12,10.22a.53.53,0,0,0,.53-.53,4.86,4.86,0,0,1,2.71-4.38.53.53,0,0,0-.47-1,5.92,5.92,0,0,0-3.3,5.33A.53.53,0,0,0,13.12,10.22Z"/>
        </g>
    </g>
</svg>