<?xml version="1.0" standalone="no"?>
<!DOCTYPE svg PUBLIC "-//W3C//DTD SVG 20010904//EN"
        "http://www.w3.org/TR/2001/REC-SVG-20010904/DTD/svg10.dtd">
<svg version="1.0" xmlns="http://www.w3.org/2000/svg"
     width="1698.000000pt" height="1698.000000pt" viewBox="0 0 1698.000000 1698.000000"
     preserveAspectRatio="xMidYMid meet">
    <metadata>
        Created by potrace 1.13, written by Peter Selinger 2001-2015
    </metadata>
    <g transform="translate(0.000000,1698.000000) scale(0.100000,-0.100000)"
       fill="#000000" stroke="none">
        <path d="M7350 16950 c-30 -17 -102 -64 -160 -105 -61 -44 -126 -82 -158 -92
-52 -17 -54 -17 -135 10 -71 24 -98 27 -203 27 -118 0 -123 -1 -191 -35 -77
-39 -106 -72 -167 -194 -57 -112 -76 -201 -76 -352 0 -124 1 -131 34 -206 44
-101 43 -97 61 -243 13 -107 21 -137 54 -207 22 -44 55 -106 75 -137 20 -31
36 -59 36 -61 0 -3 -11 -5 -24 -5 -13 0 -56 -16 -95 -36 -61 -30 -82 -48 -133
-113 -34 -42 -78 -112 -100 -155 -38 -79 -38 -81 -38 -202 0 -234 50 -366 193
-514 65 -69 99 -115 164 -230 227 -400 322 -686 368 -1105 20 -175 15 -298
-15 -383 -12 -31 -37 -104 -57 -162 -19 -58 -73 -177 -119 -265 -46 -89 -100
-210 -120 -270 l-38 -110 -4 -212 -4 -213 32 -67 c39 -85 52 -98 122 -134 41
-21 72 -29 108 -29 l50 0 -6 -42 c-25 -182 -78 -428 -126 -583 -41 -136 -182
-526 -256 -710 -132 -328 -365 -791 -510 -1010 -302 -457 -1153 -1627 -1522
-2095 -292 -369 -594 -911 -720 -1292 -51 -152 -75 -283 -101 -532 -18 -171
-20 -245 -16 -496 5 -324 18 -447 68 -643 54 -216 154 -451 363 -862 257 -503
409 -737 796 -1225 568 -715 916 -1042 1330 -1250 301 -151 682 -300 950 -372
l125 -33 1400 0 1400 0 150 43 c378 110 539 173 828 327 346 184 505 303 792
590 407 406 820 967 1050 1425 107 213 344 874 469 1308 123 427 156 637 156
992 0 483 -73 787 -300 1245 -104 210 -217 393 -402 653 -110 155 -164 219
-313 372 -381 391 -699 737 -915 995 -249 297 -506 677 -597 884 -58 131 -248
661 -327 911 -63 200 -116 497 -160 905 -76 685 -109 989 -126 1167 -24 242
-30 581 -12 678 7 36 17 160 22 275 19 391 83 750 170 965 13 30 48 127 80
215 l57 160 63 35 c99 54 159 121 218 241 74 153 92 220 92 347 0 103 -1 107
-41 190 -32 66 -60 105 -128 176 -154 160 -160 176 -81 227 44 28 63 49 90
100 34 63 35 67 38 199 4 121 6 137 27 165 101 135 131 330 81 529 -32 124
-65 183 -143 257 -87 81 -165 118 -283 136 l-95 14 -44 50 c-98 113 -197 134
-566 124 l-240 -7 -77 41 -77 41 -783 -4 c-431 -2 -792 -4 -803 -4 -11 0 -117
1 -235 4 l-215 4 -55 -30z m549 -84 c-22 -19 -47 -23 -69 -10 -24 13 -23 13
24 14 27 0 47 -2 45 -4z m-514 -14 c-26 -23 -147 -101 -130 -84 22 22 124 92
133 92 3 0 2 -4 -3 -8z m2161 -40 c-5 -4 -86 36 -86 43 0 3 20 -5 45 -17 24
-12 43 -23 41 -26z m-558 21 c-10 -2 -26 -2 -35 0 -10 3 -2 5 17 5 19 0 27 -2
18 -5z m216 -65 c37 -16 93 -45 123 -65 93 -59 151 -74 295 -76 l128 -2 0 -58
c0 -53 -1 -57 -16 -43 -11 12 -36 16 -94 16 -43 0 -141 12 -217 26 -76 14
-173 31 -215 38 l-77 11 70 39 c82 44 84 40 -36 111 -86 50 -72 51 39 3z m383
36 c-3 -3 -12 -4 -19 -1 -8 3 -5 6 6 6 11 1 17 -2 13 -5z m536 -1 c-7 -2 -19
-2 -25 0 -7 3 -2 5 12 5 14 0 19 -2 13 -5z m-1851 -69 c37 -16 68 -31 68 -34
0 -3 -37 -16 -83 -28 -45 -13 -113 -33 -151 -44 -37 -10 -79 -30 -92 -43 l-23
-23 -8 41 c-8 38 -11 42 -42 45 l-34 3 49 23 c27 13 74 40 104 61 48 32 61 36
100 33 25 -3 75 -18 112 -34z m156 15 l27 -1 -30 -9 c-23 -6 -33 -5 -45 8 -13
14 -13 15 3 9 10 -3 31 -6 45 -7z m270 6 c-3 -3 -41 -30 -84 -60 l-78 -53 -26
21 -27 22 49 7 c27 5 74 21 106 37 58 30 70 35 60 26z m1717 -108 c17 -9 24
-16 17 -17 -27 0 -68 30 -111 82 l-44 53 54 -51 c30 -29 68 -59 84 -67z
m-3193 90 c-6 -7 -30 -23 -54 -36 -52 -29 -46 -20 13 19 50 33 55 35 41 17z
m408 -17 c11 -7 6 -10 -20 -10 -33 0 -68 -15 -150 -63 -56 -32 -21 -3 49 42
65 41 94 49 121 31z m1420 -4 l35 -13 -35 -18 c-78 -39 -110 -93 -110 -185 l0
-60 -45 0 -45 0 0 45 c0 68 -31 120 -87 149 l-47 24 109 35 c116 38 168 43
225 23z m-1940 -46 c-8 -5 -19 -10 -25 -10 -5 0 -3 5 5 10 8 5 20 10 25 10 6
0 3 -5 -5 -10z m-561 -3 c-2 -1 -13 -9 -24 -17 -19 -14 -19 -14 -6 3 7 9 18
17 24 17 6 0 8 -1 6 -3z m398 -23 c-3 -3 -12 -4 -19 -1 -8 3 -5 6 6 6 11 1 17
-2 13 -5z m86 -1 c-7 -2 -19 -2 -25 0 -7 3 -2 5 12 5 14 0 19 -2 13 -5z m-546
-30 c-8 -10 -27 -38 -41 -63 -14 -25 -26 -40 -26 -34 0 15 73 125 79 119 2 -3
-3 -13 -12 -22z m3566 20 c-13 -2 -33 -2 -45 0 -13 2 -3 4 22 4 25 0 35 -2 23
-4z m119 -54 l53 -51 -55 43 c-75 58 -76 59 -63 59 7 0 36 -23 65 -51z m305
45 c-3 -3 -12 -4 -19 -1 -8 3 -5 6 6 6 11 1 17 -2 13 -5z m-2800 -35 c49 -20
103 -33 146 -37 l67 -5 0 -34 c0 -19 5 -43 11 -55 10 -18 8 -19 -13 -13 -12 4
-43 23 -68 41 -63 47 -168 100 -214 108 -29 6 -36 10 -25 17 18 11 7 14 96
-22z m982 -24 c15 -16 -38 -1 -59 16 l-25 20 39 -16 c22 -9 42 -18 45 -20z
m2091 -48 c8 -7 26 -26 40 -42 20 -24 -58 42 -105 88 -12 12 44 -27 65 -46z
m-3305 3 l90 -18 -55 -1 c-156 -4 -331 -64 -376 -130 l-24 -36 0 53 c0 42 -3
52 -17 53 -10 1 0 5 22 10 22 5 78 29 125 52 93 47 91 47 235 17z m2648 -10
c18 -16 17 -18 -30 -35 -26 -10 -85 -20 -131 -24 l-82 -6 0 42 0 42 88 3 c107
4 132 0 155 -22z m-1708 -8 c11 -9 29 -28 40 -41 22 -26 10 -22 -40 15 -16 12
-39 20 -50 18 -90 -14 -91 -14 -40 6 63 23 66 23 90 2z m2096 -77 c76 -16 149
-60 149 -90 0 -7 -19 -20 -42 -30 -67 -26 -152 -81 -301 -192 -76 -56 -149
-106 -163 -109 -26 -7 -150 1 -176 11 -7 3 -27 40 -43 82 -17 42 -31 80 -33
85 -2 4 16 -1 40 -12 76 -35 182 -23 238 26 9 8 59 15 130 20 135 8 176 21
186 60 20 77 -28 103 -210 111 l-119 6 92 29 c82 26 91 31 75 43 -12 8 3 6 41
-5 33 -11 94 -26 136 -35z m-1404 5 c3 0 84 -13 181 -29 98 -16 198 -32 223
-35 37 -5 54 -15 89 -51 l44 -45 -129 -2 c-202 -4 -233 -1 -342 33 l-103 32 0
64 c0 59 1 63 16 49 8 -9 18 -16 21 -16z m-264 -90 l62 -1 -75 -39 c-41 -21
-82 -39 -91 -40 -9 0 -33 -11 -53 -25 l-36 -25 6 28 c4 15 10 36 15 48 6 18 1
25 -34 45 l-42 24 50 5 c57 7 113 33 123 58 4 11 8 -1 10 -30 l3 -48 62 0z
m-440 19 c23 -22 68 -54 100 -70 48 -25 57 -33 50 -47 -4 -9 -8 -57 -8 -105
l0 -89 -34 6 c-19 3 -96 35 -172 71 -88 42 -156 68 -188 72 l-51 6 0 49 c0 27
-7 62 -15 77 l-14 28 87 6 c48 3 110 12 137 20 28 8 54 15 59 16 4 0 27 -17
49 -40z m-1611 10 c31 -13 87 -23 136 -26 l82 -6 0 -43 0 -44 -67 0 c-38 0
-113 -3 -167 -7 l-99 -6 7 34 c6 32 44 119 52 119 2 0 27 -9 56 -21z m3266
-25 c-12 -12 -24 -14 -45 -9 l-28 8 30 7 c54 13 61 12 43 -6z m-2078 -26 c0
-11 -7 -10 -40 7 -40 21 -38 26 5 12 19 -6 35 -14 35 -19z m1909 5 c-7 -10
-15 -20 -16 -22 -2 -2 -3 5 -3 17 0 14 6 22 16 22 14 0 15 -3 3 -17z m1008
-15 c-3 -8 -6 -5 -6 6 -1 11 2 17 5 13 3 -3 4 -12 1 -19z m-3324 -13 c48 -33
47 -40 -2 -15 -21 12 -52 22 -69 23 -16 1 -28 5 -25 10 9 15 60 6 96 -18z
m-986 -7 c-3 -8 -6 -5 -6 6 -1 11 2 17 5 13 3 -3 4 -12 1 -19z m4320 -20 c-3
-8 -6 -5 -6 6 -1 11 2 17 5 13 3 -3 4 -12 1 -19z m-3745 -34 c5 -5 33 -45 62
-90 l52 -81 -82 39 c-45 21 -93 39 -105 39 -24 2 -24 2 -1 6 20 4 22 10 22 69
l0 64 21 -19 c12 -10 25 -23 31 -27z m-579 11 c-3 -9 -8 -14 -10 -11 -3 3 -2
9 2 15 9 16 15 13 8 -4z m1174 -81 c69 -29 208 -11 235 30 4 6 8 -12 8 -40 l0
-51 -97 -16 c-54 -9 -107 -19 -119 -23 -18 -5 -26 4 -54 53 -18 32 -49 75 -69
97 l-36 38 50 -37 c28 -21 64 -44 82 -51z m1936 35 c-8 -29 -13 -23 -13 14 0
22 3 28 9 18 5 -7 6 -22 4 -32z m-2128 -31 c30 -24 54 -46 54 -49 1 -10 -99
-39 -134 -39 -30 0 -164 66 -165 81 0 9 129 47 163 48 19 1 46 -13 82 -41z
m2312 0 c-3 -7 -5 -2 -5 12 0 14 2 19 5 13 2 -7 2 -19 0 -25z m-78 -5 c10 -19
9 -23 -4 -23 -10 0 -15 9 -15 27 0 29 2 29 19 -4z m-696 -43 c164 -64 221 -70
412 -46 134 17 144 21 161 60 13 30 13 30 14 6 1 -32 30 -67 71 -84 l32 -13
-49 -7 c-95 -13 -150 -29 -226 -67 -43 -22 -86 -39 -95 -39 -10 0 -74 28 -141
62 l-124 62 -106 0 c-112 -1 -230 -24 -329 -63 -29 -11 -54 -17 -56 -13 -3 4
-8 29 -11 55 -7 46 -7 48 13 38 51 -28 133 -6 261 69 41 25 62 22 173 -20z
m1579 -37 c24 -22 23 -26 -18 -85 -19 -29 -40 -72 -47 -97 l-12 -45 -5 98 -5
98 -80 -57 c-86 -60 -48 -21 58 60 64 49 81 53 109 28z m-4217 -158 c3 -16 -6
-1 -19 35 -14 36 -25 67 -25 70 1 11 38 -77 44 -105z m995 58 l55 -13 -48 5
c-26 3 -60 12 -75 20 -15 9 -18 13 -7 9 11 -4 45 -13 75 -21z m-460 -34 c42
-9 243 -99 237 -105 -5 -5 -152 38 -157 46 -10 15 -50 30 -77 30 -37 0 -72
-25 -89 -64 -13 -30 -13 -29 -14 37 0 67 0 67 28 67 15 0 47 -5 72 -11z m1497
5 c-3 -3 -12 -4 -19 -1 -8 3 -5 6 6 6 11 1 17 -2 13 -5z m-1757 -27 c0 -2 -11
-18 -25 -37 -14 -19 -25 -43 -25 -54 0 -10 -3 -17 -6 -13 -10 10 4 51 27 80
18 24 29 33 29 24z m-263 -79 c-3 -8 -6 -5 -6 6 -1 11 2 17 5 13 3 -3 4 -12 1
-19z m1841 -96 l-48 -3 5 -37 5 -37 -16 30 c-9 17 -23 36 -32 43 -20 15 -86
16 -114 1 -17 -9 -20 -9 -16 2 3 8 11 37 18 65 l13 52 116 -57 116 -56 -47 -3z
m2173 -34 c-7 -52 -16 -77 -30 -88 -10 -8 -34 -27 -53 -41 -19 -15 -49 -55
-67 -89 -43 -81 -51 -180 -27 -337 19 -124 15 -145 -34 -187 -92 -77 -305
-117 -837 -156 -147 -11 -277 -20 -288 -20 -19 0 -20 6 -17 177 2 97 -2 208
-8 246 -11 74 -58 178 -117 261 l-36 50 17 45 c18 52 21 123 6 152 -9 16 -7
19 13 19 34 0 120 -31 205 -74 40 -20 98 -42 129 -48 l55 -11 -5 -36 c-4 -33
-25 -91 -124 -346 -48 -122 -55 -218 -23 -293 18 -41 32 -58 61 -73 49 -25
144 -26 195 -2 41 20 77 81 89 151 4 23 29 84 56 135 136 256 134 249 137 382
3 94 0 130 -12 159 -14 35 -14 37 2 32 9 -2 34 -7 55 -11 l37 -6 -17 -32 c-22
-43 -29 -197 -14 -290 11 -67 11 -77 -13 -156 -63 -207 -8 -321 154 -321 45 0
73 6 111 26 46 23 54 33 87 102 l37 77 0 196 c0 168 2 200 16 215 32 37 49 84
49 136 l0 53 53 27 c28 16 77 47 107 71 l55 44 3 -33 c2 -18 -1 -66 -7 -106z
m336 118 c-9 -13 -20 -39 -25 -57 l-10 -34 -1 31 c-1 18 8 43 20 58 26 32 37
34 16 2z m-4028 -43 c-1 -47 -1 -48 -11 -16 -6 18 -8 39 -5 47 11 29 17 17 16
-31z m973 -7 c-4 -53 -4 -54 -23 -35 -23 23 -91 25 -128 5 -13 -7 -34 -33 -47
-57 l-22 -44 -4 68 c-3 66 -2 67 22 68 14 0 59 11 100 23 109 34 106 35 102
-28z m1097 -3 c7 -21 14 -43 17 -49 3 -7 -13 -9 -49 -6 -47 4 -57 1 -86 -24
-19 -15 -40 -42 -47 -59 -13 -29 -13 -27 -14 38 l0 67 -52 1 -53 1 65 14 c36
7 90 22 120 33 78 28 85 26 99 -16z m1348 -5 c-14 -18 -28 -43 -31 -55 -7 -22
-7 -22 -27 -2 -28 28 -106 26 -151 -5 l-35 -23 17 46 18 46 94 0 c54 0 101 5
113 12 29 18 29 17 2 -19z m-230 16 c-3 -3 -12 -4 -19 -1 -8 3 -5 6 6 6 11 1
17 -2 13 -5z m-1983 -21 c-16 -35 -16 -135 0 -201 8 -37 20 -103 26 -147 10
-81 36 -143 135 -325 28 -53 37 -84 48 -170 8 -58 13 -106 12 -108 -2 -2 -55
0 -119 4 -103 6 -116 9 -109 23 14 28 8 253 -11 361 -22 134 -49 217 -97 306
-34 61 -38 76 -29 99 5 14 10 55 10 90 l0 64 38 6 c20 4 44 8 52 10 41 8 52 5
44 -12z m1642 -29 l16 -39 -21 23 c-12 12 -34 22 -49 22 l-27 0 30 20 c16 10
30 18 32 17 1 -2 10 -21 19 -43z m-2550 -15 c1 -10 2 -25 3 -33 0 -7 13 -31
27 -52 l26 -39 -32 30 c-43 41 -53 61 -45 96 7 32 19 31 21 -2z m175 -14 c54
-26 87 -35 124 -35 l51 0 -4 -82 c-4 -73 -1 -90 22 -142 14 -32 43 -84 64
-115 50 -73 58 -98 82 -268 10 -78 22 -154 26 -169 7 -25 5 -27 -22 -21 -16 4
-56 12 -89 18 l-60 12 0 186 0 187 -57 117 c-67 137 -120 218 -181 278 -25 23
-43 49 -40 56 7 17 0 18 84 -22z m-499 -115 c17 -30 26 -50 20 -45 -15 14
-102 167 -102 180 0 10 15 -15 82 -135z m2751 128 c-4 -7 -11 -42 -14 -78 l-6
-65 -1 62 c-2 56 -4 62 -24 65 -22 4 -14 8 50 27 2 1 0 -5 -5 -11z m1064 -80
c-3 -8 -6 -5 -6 6 -1 11 2 17 5 13 3 -3 4 -12 1 -19z m-1995 -101 l3 -103 72
-145 c40 -79 77 -162 83 -184 6 -22 13 -104 17 -183 l6 -143 -89 3 -89 3 -5
165 -5 166 -77 159 c-81 170 -93 201 -103 280 -3 28 -8 58 -11 68 -5 15 4 17
94 17 l100 0 4 -103z m-830 21 c2 -21 3 -38 1 -38 -1 0 -9 12 -17 27 -11 21
-11 33 -2 52 11 26 12 24 18 -41z m2818 49 c0 -7 -14 -28 -31 -47 l-30 -35 25
36 c14 20 26 41 26 47 0 7 2 12 5 12 3 0 5 -6 5 -13z m-3630 -99 c0 -6 -15
-49 -32 -96 -32 -83 -33 -85 -39 -51 -3 19 -13 49 -22 67 -10 17 -15 32 -12
32 2 0 15 -19 27 -42 l23 -43 3 108 3 109 24 -37 c14 -20 25 -41 25 -47z
m1958 -58 c13 -24 13 -24 -4 -5 -33 40 -45 82 -32 112 11 27 12 26 18 -27 3
-30 11 -66 18 -80z m589 83 c-3 -10 -5 -4 -5 12 0 17 2 24 5 18 2 -7 2 -21 0
-30z m624 -25 c-15 -50 -16 -51 -19 -19 -2 21 3 40 14 52 9 10 18 19 19 19 1
0 -6 -23 -14 -52z m-3541 -8 c6 -11 8 -20 6 -20 -3 0 -10 9 -16 20 -6 11 -8
20 -6 20 3 0 10 -9 16 -20z m1737 -32 c-3 -8 -6 -5 -6 6 -1 11 2 17 5 13 3 -3
4 -12 1 -19z m2453 5 c0 -5 -10 -19 -21 -33 l-21 -25 18 33 c18 32 24 38 24
25z m-4123 -88 c34 -68 14 -45 -26 30 -18 33 -25 51 -16 40 9 -11 28 -42 42
-70z m3306 -76 c-4 -4 -9 11 -10 34 l-2 42 10 -34 c6 -18 7 -37 2 -42z m-2298
20 c9 -17 15 -33 13 -35 -3 -2 -12 12 -21 31 -21 43 -13 47 8 4z m-525 -25
c12 -19 21 -37 18 -39 -2 -2 -14 14 -26 36 -28 49 -22 52 8 3z m-69 -103 c13
-46 24 -151 15 -151 -21 0 -108 54 -122 76 -16 24 -16 28 4 70 13 26 22 64 22
92 l0 47 35 -49 c19 -27 40 -66 46 -85z m2886 67 c-3 -8 -6 -5 -6 6 -1 11 2
17 5 13 3 -3 4 -12 1 -19z m-1118 -73 c0 -5 -8 6 -19 25 -11 19 -19 40 -19 45
0 6 8 -6 19 -25 11 -19 19 -39 19 -45z m-1141 29 c-3 -14 -5 -12 -10 9 -3 19
-2 25 4 19 6 -6 8 -18 6 -28z m3055 -168 c75 -77 147 -170 147 -190 0 -5 -17
17 -39 50 -21 32 -67 86 -101 119 -65 63 -140 167 -140 194 1 9 13 -8 28 -38
15 -30 62 -90 105 -135z m-4310 127 c-17 -16 -48 -50 -69 -78 -52 -68 -60 -76
-38 -36 22 39 115 141 129 141 5 0 -5 -12 -22 -27z m457 -136 c27 -34 28 -37
7 -18 -37 33 -57 82 -56 133 2 41 2 40 9 -15 6 -43 16 -69 40 -100z m807 116
c-3 -10 -5 -4 -5 12 0 17 2 24 5 18 2 -7 2 -21 0 -30z m190 15 c-3 -8 -6 -5
-6 6 -1 11 2 17 5 13 3 -3 4 -12 1 -19z m-180 -80 c-3 -7 -5 -2 -5 12 0 14 2
19 5 13 2 -7 2 -19 0 -25z m-488 -199 c33 -27 86 -25 116 6 l25 24 0 -49 c0
-61 -2 -61 -118 -16 -178 69 -276 124 -137 76 32 -11 62 -20 67 -20 4 0 9 35
10 78 l1 77 6 -78 c5 -67 10 -82 30 -98z m3208 109 c-3 -7 -5 -2 -5 12 0 14 2
19 5 13 2 -7 2 -19 0 -25z m-3787 -54 c0 -2 -19 7 -41 22 -23 14 -44 22 -48
17 -44 -51 -76 -101 -87 -136 -7 -23 -13 -33 -13 -23 -1 29 34 97 75 144 l36
42 39 -31 c21 -17 39 -33 39 -35z m3734 -43 l-47 -46 41 49 c23 27 43 56 43
65 1 12 3 11 6 -3 4 -13 -10 -33 -43 -65z m-2579 -77 c32 -8 69 1 91 24 14 13
17 13 12 2 -3 -8 -11 -39 -18 -67 l-14 -53 -40 0 c-23 0 -46 4 -53 8 -6 4 -16
34 -22 66 -14 77 -13 87 5 54 8 -15 26 -31 39 -34z m-1033 -80 c113 -67 164
-90 290 -132 390 -130 616 -169 1223 -214 255 -18 917 -16 1145 5 430 39 730
80 868 117 81 22 179 69 260 124 58 39 58 38 26 -41 -46 -109 -216 -213 -499
-306 -240 -78 -415 -114 -690 -139 -176 -16 -685 -16 -905 0 -537 41 -1221
167 -1524 281 -161 60 -297 142 -355 213 -34 42 -56 142 -40 180 12 28 12 28
38 11 14 -9 88 -54 163 -99z m3866 71 c-2 -1 -23 -14 -48 -29 l-45 -27 40 35
c21 19 43 32 48 29 4 -3 7 -6 5 -8z m-1678 -55 c28 0 46 7 61 23 l22 22 -7
-30 c-4 -16 -12 -47 -17 -67 l-10 -38 -64 0 -65 0 0 65 0 65 20 -20 c13 -13
33 -20 60 -20z m-429 -31 c10 -14 33 -34 51 -43 27 -14 28 -16 8 -12 -14 3
-54 6 -89 6 l-64 0 27 25 c14 13 26 35 26 48 0 30 14 45 19 20 2 -10 12 -30
22 -44z m-864 25 c-3 -3 -12 -4 -19 -1 -8 3 -5 6 6 6 11 1 17 -2 13 -5z m640
-60 c-3 -3 -12 -4 -19 -1 -8 3 -5 6 6 6 11 1 17 -2 13 -5z m76 -1 c-7 -2 -19
-2 -25 0 -7 3 -2 5 12 5 14 0 19 -2 13 -5z m1034 1 c-3 -3 -12 -4 -19 -1 -8 3
-5 6 6 6 11 1 17 -2 13 -5z m1298 -34 c-4 -17 -9 -30 -11 -27 -2 2 -1 18 2 36
4 17 9 30 11 27 3 -2 2 -19 -2 -36z m-4428 -22 c-3 -8 -6 -5 -6 6 -1 11 2 17
5 13 3 -3 4 -12 1 -19z m227 -15 c8 -16 26 -40 41 -55 14 -16 22 -28 18 -28
-10 0 -67 70 -76 93 -10 27 1 20 17 -10z m97 -110 c13 -16 12 -17 -3 -4 -10 7
-18 15 -18 17 0 8 8 3 21 -13z m-261 -23 c6 -11 8 -20 6 -20 -3 0 -10 9 -16
20 -6 11 -8 20 -6 20 3 0 10 -9 16 -20z m4290 -4 c0 -2 -8 -10 -17 -17 -16
-13 -17 -12 -4 4 13 16 21 21 21 13z m221 -33 c-12 -20 -14 -14 -5 12 4 9 9
14 11 11 3 -2 0 -13 -6 -23z m-4461 -28 c19 -19 32 -35 29 -35 -3 0 -20 16
-39 35 -19 19 -32 35 -29 35 3 0 20 -16 39 -35z m4420 -55 c-6 -11 -13 -20
-16 -20 -2 0 0 9 6 20 6 11 13 20 16 20 2 0 0 -9 -6 -20z m-4253 -153 c80
-136 128 -224 116 -212 -5 6 -43 66 -83 135 -40 69 -93 152 -118 185 -42 55
-43 57 -10 27 19 -18 62 -79 95 -135z m4213 93 c-11 -16 -35 -39 -53 -52 -24
-17 -19 -9 18 29 58 60 64 64 35 23z m-4020 -51 c10 -6 5 -7 -15 -3 -16 4 -34
11 -40 16 -11 12 31 1 55 -13z m3835 -94 c-25 -25 -45 -51 -45 -57 0 -6 -3 -9
-6 -6 -11 12 27 69 59 88 18 11 33 20 35 20 1 0 -18 -20 -43 -45z m-3640 -39
c108 -32 123 -38 70 -30 -63 10 -88 14 -122 24 -38 10 -38 11 -18 -37 24 -57
12 -48 -24 19 -29 52 -31 60 -15 56 10 -3 60 -18 109 -32z m142 -42 c-3 -3
-12 -4 -19 -1 -8 3 -5 6 6 6 11 1 17 -2 13 -5z m40 -10 c-3 -3 -12 -4 -19 -1
-8 3 -5 6 6 6 11 1 17 -2 13 -5z m1270 -10 c-3 -3 -12 -4 -19 -1 -8 3 -5 6 6
6 11 1 17 -2 13 -5z m-1180 -10 c-3 -3 -12 -4 -19 -1 -8 3 -5 6 6 6 11 1 17
-2 13 -5z m3292 -33 c-6 -18 -13 -30 -15 -28 -2 2 1 18 7 36 6 18 13 30 15 28
2 -2 -1 -18 -7 -36z m-1312 23 c-3 -3 -12 -4 -19 -1 -8 3 -5 6 6 6 11 1 17 -2
13 -5z m1072 -95 c-21 -55 -39 -103 -39 -106 0 -4 -2 -4 -5 -1 -3 2 9 44 25
93 16 49 29 89 27 90 -1 2 -38 -6 -81 -16 -43 -11 -81 -18 -83 -16 -2 3 164
53 189 56 3 1 -11 -44 -33 -100z m-3359 46 c0 -5 -5 -3 -10 5 -5 8 -10 20 -10
25 0 6 5 3 10 -5 5 -8 10 -19 10 -25z m233 -30 c332 -80 736 -155 937 -175
158 -15 454 -29 755 -36 458 -11 833 21 1129 96 87 22 160 39 162 38 1 -2 -18
-65 -44 -140 l-45 -138 -87 0 c-82 0 -93 -2 -168 -40 -102 -51 -165 -119 -250
-267 -63 -111 -186 -369 -226 -476 l-22 -60 -58 168 c-61 177 -135 338 -193
417 -26 37 -52 57 -115 88 -76 38 -86 40 -168 40 -84 0 -92 -2 -176 -45 -93
-47 -125 -72 -347 -273 l-136 -122 -22 31 c-12 17 -69 125 -126 240 -97 196
-107 213 -180 287 -56 57 -97 88 -145 112 l-67 32 -143 -4 c-113 -4 -156 -10
-202 -27 -33 -11 -60 -20 -61 -19 -1 2 -22 53 -47 113 -25 61 -53 127 -62 148
-10 22 -12 37 -6 37 6 0 56 -11 113 -25z m2954 19 c-3 -3 -12 -4 -19 -1 -8 3
-5 6 6 6 11 1 17 -2 13 -5z m-3298 -229 c0 -5 -6 1 -14 15 -8 14 -14 30 -14
35 0 6 6 -1 14 -15 8 -14 14 -29 14 -35z m3602 -22 c-12 -20 -14 -14 -5 12 4
9 9 14 11 11 3 -2 0 -13 -6 -23z m-3567 -63 c3 -14 -3 -7 -13 15 -11 22 -20
45 -20 50 0 15 26 -37 33 -65z m3547 13 c-12 -20 -14 -14 -5 12 4 9 9 14 11
11 3 -2 0 -13 -6 -23z m-3230 -108 c-47 -27 -57 -30 -66 -16 -3 6 16 16 42 24
69 21 73 20 24 -8z m2979 -29 c-11 -35 -13 -36 -58 -35 -26 1 -37 4 -25 6 13
2 37 19 55 36 18 18 35 31 36 30 2 -1 -1 -18 -8 -37z m-3040 -59 c10 -4 8 -6
-7 -6 -13 -1 -27 8 -34 22 -11 21 -11 21 7 6 10 -9 26 -19 34 -22z m3237 1
c-3 -8 -6 -5 -6 6 -1 11 2 17 5 13 3 -3 4 -12 1 -19z m-2924 -55 c-7 -2 -19
-2 -25 0 -7 3 -2 5 12 5 14 0 19 -2 13 -5z m44 -9 c-3 -3 -12 -4 -19 -1 -8 3
-5 6 6 6 11 1 17 -2 13 -5z m38 -14 c3 -6 -1 -7 -9 -4 -18 7 -21 14 -7 14 6 0
13 -4 16 -10z m40 -30 c10 -11 16 -20 13 -20 -3 0 -13 9 -23 20 -10 11 -16 20
-13 20 3 0 13 -9 23 -20z m-310 -24 c-14 -18 -27 -47 -28 -64 -3 -43 -17 -28
-17 19 0 34 5 42 33 59 42 26 42 26 12 -14z m3082 -8 c-3 -8 -6 -5 -6 6 -1 11
2 17 5 13 3 -3 4 -12 1 -19z m-2722 -18 c10 -11 16 -20 13 -20 -3 0 -13 9 -23
20 -10 11 -16 20 -13 20 3 0 13 -9 23 -20z m-112 -39 c23 -22 70 -86 103 -143
34 -57 100 -168 147 -248 154 -263 198 -300 352 -300 80 0 91 3 167 41 70 35
104 63 262 217 100 97 199 186 219 197 l39 20 17 -22 c10 -11 55 -131 100
-265 132 -388 158 -432 286 -494 60 -30 79 -34 145 -34 65 1 83 5 135 33 70
38 78 49 171 267 129 302 261 556 327 628 20 21 22 22 28 5 9 -23 3 -175 -18
-416 -12 -147 -14 -266 -10 -545 7 -441 24 -635 121 -1407 14 -110 33 -274 41
-365 9 -91 30 -255 46 -365 64 -434 65 -443 43 -460 -48 -38 -204 -102 -436
-179 -348 -116 -503 -153 -823 -198 -138 -19 -205 -22 -485 -23 -271 0 -342 3
-430 18 -217 38 -465 109 -700 202 -117 46 -407 186 -439 212 l-23 19 27 64
c41 98 169 486 213 651 126 460 168 747 192 1319 6 140 18 352 27 470 19 277
9 789 -23 1056 l-6 51 39 16 c65 27 98 22 146 -22z m2451 7 c-16 -12 -40 -31
-54 -42 -14 -12 -7 -2 16 22 24 23 48 42 55 42 6 0 -1 -10 -17 -22z m373 0
c-3 -8 -6 -5 -6 6 -1 11 2 17 5 13 3 -3 4 -12 1 -19z m-1787 -31 c0 -2 -12
-14 -27 -28 l-28 -24 24 28 c23 25 31 32 31 24z m1567 -79 c-3 -8 -6 -5 -6 6
-1 11 2 17 5 13 3 -3 4 -12 1 -19z m-1647 9 c0 -2 -17 -19 -37 -38 l-38 -34
34 38 c33 34 41 42 41 34z m383 -29 c23 -12 40 -31 58 -63 7 -11 -3 -6 -21 12
-37 38 -88 50 -142 36 -47 -13 -49 -7 -5 12 40 17 81 19 110 3z m-1836 -20
c-3 -8 -6 -5 -6 6 -1 11 2 17 5 13 3 -3 4 -12 1 -19z m3290 -60 c-3 -8 -6 -5
-6 6 -1 11 2 17 5 13 3 -3 4 -12 1 -19z m-3280 -20 c-3 -7 -5 -2 -5 12 0 14 2
19 5 13 2 -7 2 -19 0 -25z m1303 -2 c0 -2 -8 -10 -17 -17 -16 -13 -17 -12 -4
4 13 16 21 21 21 13z m-190 -164 c-15 -5 -55 33 -93 88 -30 43 -29 43 36 -20
37 -36 63 -66 57 -68z m2157 96 c-3 -7 -5 -2 -5 12 0 14 2 19 5 13 2 -7 2 -19
0 -25z m-3260 -10 c-3 -8 -6 -5 -6 6 -1 11 2 17 5 13 3 -3 4 -12 1 -19z m2684
-51 c-10 -9 -11 -8 -5 6 3 10 9 15 12 12 3 -3 0 -11 -7 -18z m386 -59 c-2 -13
-4 -3 -4 22 0 25 2 35 4 23 2 -13 2 -33 0 -45z m-421 -15 c-14 -26 -25 -45
-26 -41 0 12 43 98 48 94 2 -2 -8 -26 -22 -53z m-2639 10 c-3 -10 -5 -4 -5 12
0 17 2 24 5 18 2 -7 2 -21 0 -30z m1393 23 c0 -2 -8 -10 -17 -17 -16 -13 -17
-12 -4 4 13 16 21 21 21 13z m1201 -129 c-10 -9 -11 -8 -5 6 3 10 9 15 12 12
3 -3 0 -11 -7 -18z m-346 -103 c29 -43 51 -81 48 -84 -10 -10 -71 71 -92 122
-26 63 -24 61 44 -38z m326 59 c-12 -20 -14 -14 -5 12 4 9 9 14 11 11 3 -2 0
-13 -6 -23z m-2584 -105 c-3 -8 -6 -5 -6 6 -1 11 2 17 5 13 3 -3 4 -12 1 -19z
m-17 -63 c-16 -47 -23 -40 -8 8 6 20 13 35 16 33 2 -3 -1 -21 -8 -41z m2360
-35 c-16 -10 -69 -10 -75 1 -3 3 11 5 30 4 20 -2 38 2 41 7 3 5 9 7 12 3 4 -3
0 -10 -8 -15z m877 -72 c-3 -7 -5 -2 -5 12 0 14 2 19 5 13 2 -7 2 -19 0 -25z
m-10 -115 c-3 -10 -5 -2 -5 17 0 19 2 27 5 18 2 -10 2 -26 0 -35z m-3312 -18
c-23 -59 -30 -53 -9 9 9 26 18 45 21 42 3 -3 -3 -25 -12 -51z m158 -39 c-35
-43 -52 -47 -21 -5 13 17 27 37 33 45 6 8 11 10 13 4 2 -6 -9 -26 -25 -44z
m-193 -44 c0 -5 -7 -17 -15 -28 -14 -18 -14 -17 -4 9 12 27 19 34 19 19z m357
-64 c-3 -7 -5 -2 -5 12 0 14 2 19 5 13 2 -7 2 -19 0 -25z m-190 -165 c-7 -156
-46 -418 -71 -478 -22 -51 -85 -125 -107 -125 -27 0 -34 37 -33 165 0 123 16
187 87 355 37 88 115 230 126 230 2 0 1 -66 -2 -147z m180 10 c-3 -10 -5 -2
-5 17 0 19 2 27 5 18 2 -10 2 -26 0 -35z m3010 -70 c-3 -10 -5 -4 -5 12 0 17
2 24 5 18 2 -7 2 -21 0 -30z m10 -110 c-3 -10 -5 -4 -5 12 0 17 2 24 5 18 2
-7 2 -21 0 -30z m10 -100 c-3 -10 -5 -4 -5 12 0 17 2 24 5 18 2 -7 2 -21 0
-30z m10 -100 c-3 -10 -5 -2 -5 17 0 19 2 27 5 18 2 -10 2 -26 0 -35z m10
-100 c-3 -10 -5 -2 -5 17 0 19 2 27 5 18 2 -10 2 -26 0 -35z m10 -95 c-3 -7
-5 -2 -5 12 0 14 2 19 5 13 2 -7 2 -19 0 -25z m10 -75 c-3 -10 -5 -4 -5 12 0
17 2 24 5 18 2 -7 2 -21 0 -30z m-3603 -49 c3 -8 2 -12 -4 -9 -6 3 -10 10 -10
16 0 14 7 11 14 -7z m27 -41 c13 -16 12 -17 -3 -4 -10 7 -18 15 -18 17 0 8 8
3 21 -13z m3586 -5 c-3 -8 -6 -5 -6 6 -1 11 2 17 5 13 3 -3 4 -12 1 -19z
m-3518 -34 c14 -12 -19 -1 -35 12 -18 14 -18 14 6 3 14 -6 27 -13 29 -15z
m3528 -66 c-3 -8 -6 -5 -6 6 -1 11 2 17 5 13 3 -3 4 -12 1 -19z m-3350 -90
c-3 -8 -6 -5 -6 6 -1 11 2 17 5 13 3 -3 4 -12 1 -19z m3360 0 c-3 -8 -6 -5 -6
6 -1 11 2 17 5 13 3 -3 4 -12 1 -19z m-3387 -171 c-32 -173 -53 -267 -57 -263
-3 2 13 95 34 206 21 112 39 195 41 186 2 -9 -6 -67 -18 -129z m3227 81 c-3
-8 -6 -5 -6 6 -1 11 2 17 5 13 3 -3 4 -12 1 -19z m10 -80 c-3 -7 -5 -2 -5 12
0 14 2 19 5 13 2 -7 2 -19 0 -25z m10 -90 c-3 -7 -5 -2 -5 12 0 14 2 19 5 13
2 -7 2 -19 0 -25z m10 -85 c-3 -10 -5 -4 -5 12 0 17 2 24 5 18 2 -7 2 -21 0
-30z m170 -45 c-3 -7 -5 -2 -5 12 0 14 2 19 5 13 2 -7 2 -19 0 -25z m-160 -35
c-3 -10 -5 -4 -5 12 0 17 2 24 5 18 2 -7 2 -21 0 -30z m-3330 -45 c-3 -8 -6
-5 -6 6 -1 11 2 17 5 13 3 -3 4 -12 1 -19z m3500 0 c-3 -8 -6 -5 -6 6 -1 11 2
17 5 13 3 -3 4 -12 1 -19z m-160 -40 c-3 -7 -5 -2 -5 12 0 14 2 19 5 13 2 -7
2 -19 0 -25z m-3350 0 c-3 -8 -6 -5 -6 6 -1 11 2 17 5 13 3 -3 4 -12 1 -19z
m3520 -40 c-3 -8 -6 -5 -6 6 -1 11 2 17 5 13 3 -3 4 -12 1 -19z m10 -80 c-3
-7 -5 -2 -5 12 0 14 2 19 5 13 2 -7 2 -19 0 -25z m10 -80 c-3 -7 -5 -2 -5 12
0 14 2 19 5 13 2 -7 2 -19 0 -25z m20 -130 c-3 -8 -6 -5 -6 6 -1 11 2 17 5 13
3 -3 4 -12 1 -19z m10 -70 c-3 -8 -6 -5 -6 6 -1 11 2 17 5 13 3 -3 4 -12 1
-19z m10 -70 c-3 -8 -6 -5 -6 6 -1 11 2 17 5 13 3 -3 4 -12 1 -19z m10 -60
c-3 -7 -5 -2 -5 12 0 14 2 19 5 13 2 -7 2 -19 0 -25z m10 -50 c-3 -8 -6 -5 -6
6 -1 11 2 17 5 13 3 -3 4 -12 1 -19z m10 -50 c-3 -8 -6 -5 -6 6 -1 11 2 17 5
13 3 -3 4 -12 1 -19z m-3836 -25 c-12 -20 -14 -14 -5 12 4 9 9 14 11 11 3 -2
0 -13 -6 -23z m-20 -50 c-12 -20 -14 -14 -5 12 4 9 9 14 11 11 3 -2 0 -13 -6
-23z m3897 -83 c0 -8 -6 1 -13 20 -7 19 -13 42 -13 50 0 8 6 -1 13 -20 7 -19
13 -42 13 -50z m-3917 33 c-12 -20 -14 -14 -5 12 4 9 9 14 11 11 3 -2 0 -13
-6 -23z m3716 -5 c-3 -8 -6 -5 -6 6 -1 11 2 17 5 13 3 -3 4 -12 1 -19z m-3736
-45 c-12 -20 -14 -14 -5 12 4 9 9 14 11 11 3 -2 0 -13 -6 -23z m4014 -213 c37
-113 70 -212 73 -220 3 -8 2 -12 -2 -9 -8 7 -146 417 -146 432 0 22 11 -6 75
-203z m-4053 114 c-26 -62 -68 -145 -60 -119 9 30 82 195 85 192 2 -2 -10 -35
-25 -73z m253 4 c3 -22 18 -49 38 -69 l32 -32 -33 19 c-18 10 -43 29 -54 41
-20 21 -20 26 -8 65 8 24 15 36 16 28 2 -8 5 -31 9 -52z m3535 -53 c-6 -19
-26 -45 -43 -57 l-32 -22 32 36 c17 20 34 51 39 70 4 18 9 27 11 21 3 -7 -1
-29 -7 -48z m-3874 -142 c-14 -26 -25 -45 -26 -41 0 12 43 98 48 94 2 -2 -8
-26 -22 -53z m184 3 c0 -3 -4 -8 -10 -11 -5 -3 -10 -1 -10 4 0 6 5 11 10 11 6
0 10 -2 10 -4z m3816 -27 l19 -22 -25 14 c-14 7 -28 13 -32 14 -17 1 -19 15
-1 15 11 0 28 -10 39 -21z m-426 -19 c-8 -5 -19 -10 -25 -10 -5 0 -3 5 5 10 8
5 20 10 25 10 6 0 3 -5 -5 -10z m-3304 -21 c62 -16 61 -24 -1 -24 -46 0 -58
-4 -86 -30 l-31 -30 17 35 c33 66 33 66 101 49z m3679 -19 c-3 -5 -12 -10 -18
-10 -7 0 -6 4 3 10 19 12 23 12 15 0z m-4059 -149 c-31 -61 -58 -111 -61 -111
-3 0 21 52 52 115 32 63 59 113 61 111 2 -2 -22 -54 -52 -115z m604 -41 c327
-156 569 -238 890 -303 204 -42 347 -50 726 -43 465 8 627 26 948 107 240 59
664 206 806 279 l38 19 52 -152 c151 -441 280 -690 540 -1037 299 -399 676
-845 970 -1145 370 -378 577 -642 798 -1020 193 -330 290 -593 352 -960 39
-228 18 -607 -51 -915 -41 -182 -129 -458 -357 -1105 -97 -277 -180 -447 -346
-708 -191 -303 -609 -807 -896 -1081 -415 -397 -1111 -713 -1850 -840 -235
-40 -381 -50 -715 -49 -541 1 -1056 50 -1449 139 -282 63 -714 194 -891 269
-397 170 -769 520 -1286 1210 -528 704 -883 1287 -1037 1701 -112 300 -169
729 -144 1081 29 405 120 740 297 1088 149 294 274 488 485 755 139 176 207
268 630 860 194 272 417 581 495 686 157 211 250 346 347 504 102 166 261 454
339 614 69 142 73 147 98 141 14 -4 109 -46 211 -95z m3839 -195 c50 -131 89
-240 88 -242 -6 -5 -187 466 -187 485 0 17 18 -26 99 -243z m-1922 139 c-3 -3
-12 -4 -19 -1 -8 3 -5 6 6 6 11 1 17 -2 13 -5z m-2677 -204 c-6 -11 -13 -20
-16 -20 -2 0 0 9 6 20 6 11 13 20 16 20 2 0 0 -9 -6 -20z m1987 14 c-3 -3 -12
-4 -19 -1 -8 3 -5 6 6 6 11 1 17 -2 13 -5z m-2032 -94 c-9 -16 -18 -30 -21
-30 -2 0 2 14 11 30 9 17 18 30 21 30 2 0 -2 -13 -11 -30z m-31 -52 c-32 -56
-319 -469 -533 -768 -504 -705 -1037 -1420 -1057 -1420 -5 0 50 73 181 240
125 159 894 1221 1139 1573 236 337 300 426 270 375z m4814 -143 c-3 -3 -9 2
-12 12 -6 14 -5 15 5 6 7 -7 10 -15 7 -18z m112 -185 c6 -11 8 -20 6 -20 -3 0
-10 9 -16 20 -6 11 -8 20 -6 20 3 0 10 -9 16 -20z m126 -190 c177 -253 383
-504 688 -835 235 -255 364 -393 505 -540 64 -66 103 -108 87 -95 -108 93
-753 791 -966 1045 -141 168 -357 459 -405 545 -18 33 7 -1 91 -120z m25 -357
c13 -16 12 -17 -3 -4 -17 13 -22 21 -14 21 2 0 10 -8 17 -17z m540 -650 c13
-16 12 -17 -3 -4 -17 13 -22 21 -14 21 2 0 10 -8 17 -17z m529 -564 c0 -4 -30
25 -67 64 -38 40 -70 74 -73 77 -3 3 -41 44 -85 91 -44 47 -11 16 73 -69 83
-85 152 -159 152 -163z m316 -31 l29 -33 -32 29 c-31 28 -38 36 -30 36 2 0 16
-15 33 -32z m-270 -20 l29 -33 -32 29 c-31 28 -38 36 -30 36 2 0 16 -15 33
-32z m390 -140 c48 -68 92 -129 97 -135 5 -7 7 -13 4 -13 -2 0 -44 55 -92 123
-49 67 -92 128 -98 135 -5 6 -7 12 -4 12 3 0 45 -55 93 -122z m-7876 108 c0
-2 -8 -10 -17 -17 -16 -13 -17 -12 -4 4 13 16 21 21 21 13z m7541 -33 c13 -16
12 -17 -3 -4 -10 7 -18 15 -18 17 0 8 8 3 21 -13z m-7902 -75 c-64 -88 -98
-127 -59 -68 35 52 111 150 116 150 2 0 -23 -37 -57 -82z m321 58 c0 -2 -8
-10 -17 -17 -16 -13 -17 -12 -4 4 13 16 21 21 21 13z m-52 -68 c-14 -18 -57
-77 -97 -130 -41 -54 -76 -98 -78 -98 -6 0 78 119 140 198 50 63 79 88 35 30z
m-374 -138 c-15 -22 -29 -40 -31 -40 -5 0 3 15 29 53 30 43 31 32 2 -13z
m8509 -90 c31 -52 11 -32 -27 28 -20 31 -27 45 -14 30 13 -15 32 -41 41 -58z
m-272 13 c13 -16 12 -17 -3 -4 -10 7 -18 15 -18 17 0 8 8 3 21 -13z m-8041
-27 c0 -2 -8 -10 -17 -17 -16 -13 -17 -12 -4 4 13 16 21 21 21 13z m-279 -23
c-5 -10 -17 -27 -26 -38 -16 -19 -17 -19 -3 5 26 46 29 50 34 50 3 0 0 -8 -5
-17z m8670 -88 l10 -20 -16 20 c-9 11 -21 29 -26 40 l-10 20 16 -20 c9 -11 21
-29 26 -40z m-8721 5 c-6 -11 -13 -20 -16 -20 -2 0 0 9 6 20 6 11 13 20 16 20
2 0 0 -9 -6 -20z m8750 -50 c6 -11 8 -20 6 -20 -3 0 -10 9 -16 20 -6 11 -8 20
-6 20 3 0 10 -9 16 -20z m-8810 -50 c-6 -11 -13 -20 -16 -20 -2 0 0 9 6 20 6
11 13 20 16 20 2 0 0 -9 -6 -20z m8840 0 c6 -11 8 -20 6 -20 -3 0 -10 9 -16
20 -6 11 -8 20 -6 20 3 0 10 -9 16 -20z m-8880 -70 c-6 -11 -13 -20 -16 -20
-2 0 0 9 6 20 6 11 13 20 16 20 2 0 0 -9 -6 -20z m8925 -10 c9 -16 13 -30 11
-30 -3 0 -12 14 -21 30 -9 17 -13 30 -11 30 3 0 12 -13 21 -30z m-8985 -100
c-17 -33 -33 -60 -35 -60 -3 0 8 27 25 60 17 33 33 60 35 60 3 0 -8 -27 -25
-60z m9100 -135 c0 -5 -5 -3 -10 5 -5 8 -10 20 -10 25 0 6 5 3 10 -5 5 -8 10
-19 10 -25z m-9179 -18 c-10 -9 -11 -8 -5 6 3 10 9 15 12 12 3 -3 0 -11 -7
-18z m-35 -74 c-8 -15 -15 -25 -16 -21 0 12 23 58 27 54 3 -2 -2 -17 -11 -33z
m-35 -80 c-12 -20 -14 -14 -5 12 4 9 9 14 11 11 3 -2 0 -13 -6 -23z m-25 -60
c-8 -15 -15 -25 -16 -21 0 12 23 58 27 54 3 -2 -2 -17 -11 -33z m-35 -90 c-12
-20 -14 -14 -5 12 4 9 9 14 11 11 3 -2 0 -13 -6 -23z m9236 -105 c-3 -8 -6 -5
-6 6 -1 11 2 17 5 13 3 -3 4 -12 1 -19z m240 -60 c-3 -8 -6 -5 -6 6 -1 11 2
17 5 13 3 -3 4 -12 1 -19z m10 -40 c-3 -8 -6 -5 -6 6 -1 11 2 17 5 13 3 -3 4
-12 1 -19z m10 -40 c-3 -8 -6 -5 -6 6 -1 11 2 17 5 13 3 -3 4 -12 1 -19z m10
-50 c-3 -7 -5 -2 -5 12 0 14 2 19 5 13 2 -7 2 -19 0 -25z m10 -55 c-3 -10 -5
-4 -5 12 0 17 2 24 5 18 2 -7 2 -21 0 -30z m-9610 -15 c-3 -8 -6 -5 -6 6 -1
11 2 17 5 13 3 -3 4 -12 1 -19z m9620 -55 c-3 -10 -5 -2 -5 17 0 19 2 27 5 18
2 -10 2 -26 0 -35z m10 -85 c-3 -7 -5 -2 -5 12 0 14 2 19 5 13 2 -7 2 -19 0
-25z m-9650 -20 c-3 -7 -5 -2 -5 12 0 14 2 19 5 13 2 -7 2 -19 0 -25z m230
-60 c-3 -8 -6 -5 -6 6 -1 11 2 17 5 13 3 -3 4 -12 1 -19z m-240 -40 c-3 -7 -5
-2 -5 12 0 14 2 19 5 13 2 -7 2 -19 0 -25z m9460 -350 c-3 -8 -6 -5 -6 6 -1
11 2 17 5 13 3 -3 4 -12 1 -19z m-10 -110 c-3 -7 -5 -2 -5 12 0 14 2 19 5 13
2 -7 2 -19 0 -25z m200 -20 c-3 -8 -6 -5 -6 6 -1 11 2 17 5 13 3 -3 4 -12 1
-19z m-220 -130 c-3 -8 -6 -5 -6 6 -1 11 2 17 5 13 3 -3 4 -12 1 -19z m-9200
-25 c-3 -10 -5 -4 -5 12 0 17 2 24 5 18 2 -7 2 -21 0 -30z m9190 -35 c-3 -8
-6 -5 -6 6 -1 11 2 17 5 13 3 -3 4 -12 1 -19z m-9180 -60 c-3 -8 -6 -5 -6 6
-1 11 2 17 5 13 3 -3 4 -12 1 -19z m9170 0 c-3 -8 -6 -5 -6 6 -1 11 2 17 5 13
3 -3 4 -12 1 -19z m-40 -180 c-3 -8 -6 -5 -6 6 -1 11 2 17 5 13 3 -3 4 -12 1
-19z m150 -170 c-3 -8 -6 -5 -6 6 -1 11 2 17 5 13 3 -3 4 -12 1 -19z m-9337
-343 c0 -5 -5 -3 -10 5 -5 8 -10 20 -10 25 0 6 5 3 10 -5 5 -8 10 -19 10 -25z
m30 -70 c0 -5 -5 -3 -10 5 -5 8 -10 20 -10 25 0 6 5 3 10 -5 5 -8 10 -19 10
-25z m49 -110 c0 -5 -6 1 -14 15 -8 14 -14 30 -14 35 0 6 6 -1 14 -15 8 -14
14 -29 14 -35z m8922 -472 c-12 -20 -14 -14 -5 12 4 9 9 14 11 11 3 -2 0 -13
-6 -23z m-30 -80 c-12 -20 -14 -14 -5 12 4 9 9 14 11 11 3 -2 0 -13 -6 -23z
m-20 -50 c-12 -20 -14 -14 -5 12 4 9 9 14 11 11 3 -2 0 -13 -6 -23z m-8541
-33 c6 -11 8 -20 6 -20 -3 0 -10 9 -16 20 -6 11 -8 20 -6 20 3 0 10 -9 16 -20z
m8521 -17 c-12 -20 -14 -14 -5 12 4 9 9 14 11 11 3 -2 0 -13 -6 -23z m-8451
-103 c6 -11 8 -20 6 -20 -3 0 -10 9 -16 20 -6 11 -8 20 -6 20 3 0 10 -9 16
-20z m8335 -140 c-9 -16 -18 -30 -21 -30 -2 0 2 14 11 30 9 17 18 30 21 30 2
0 -2 -13 -11 -30z m-8215 -50 c6 -11 8 -20 6 -20 -3 0 -10 9 -16 20 -6 11 -8
20 -6 20 3 0 10 -9 16 -20z m8170 -30 c-6 -11 -13 -20 -16 -20 -2 0 0 9 6 20
6 11 13 20 16 20 2 0 0 -9 -6 -20z m-8125 -36 c9 -15 12 -23 6 -20 -11 7 -35
46 -28 46 3 0 12 -12 22 -26z m8085 -34 c-6 -11 -13 -20 -16 -20 -2 0 0 9 6
20 6 11 13 20 16 20 2 0 0 -9 -6 -20z m-7941 -163 c227 -303 574 -725 737
-897 48 -49 82 -90 76 -90 -6 0 -12 4 -14 9 -1 5 -40 47 -84 94 -202 212 -674
795 -824 1017 -46 69 0 13 109 -133z m7912 116 c-5 -10 -17 -27 -26 -38 -16
-19 -17 -19 -3 5 26 46 29 50 34 50 3 0 0 -8 -5 -17z m-47 -75 c-89 -150 -388
-554 -535 -723 -243 -280 -430 -464 -599 -590 -36 -27 -71 -53 -77 -58 -7 -5
-13 -7 -13 -5 0 3 44 38 98 79 128 97 478 448 622 624 136 167 315 407 424
568 44 64 82 117 84 117 2 0 0 -6 -4 -12z m-284 -72 c0 -2 -8 -10 -17 -17 -16
-13 -17 -12 -4 4 13 16 21 21 21 13z m-30 -40 c0 -2 -8 -10 -17 -17 -16 -13
-17 -12 -4 4 13 16 21 21 21 13z m-30 -40 c0 -2 -8 -10 -17 -17 -16 -13 -17
-12 -4 4 13 16 21 21 21 13z m-30 -40 c0 -2 -8 -10 -17 -17 -16 -13 -17 -12
-4 4 13 16 21 21 21 13z m-30 -39 c0 -2 -10 -12 -22 -23 l-23 -19 19 23 c18
21 26 27 26 19z m-40 -51 c0 -2 -8 -10 -17 -17 -16 -13 -17 -12 -4 4 13 16 21
21 21 13z m-90 -110 c0 -2 -8 -10 -17 -17 -16 -13 -17 -12 -4 4 13 16 21 21
21 13z m-50 -60 c0 -2 -8 -10 -17 -17 -16 -13 -17 -12 -4 4 13 16 21 21 21 13z
m-6639 -33 c13 -16 12 -17 -3 -4 -10 7 -18 15 -18 17 0 8 8 3 21 -13z m40 -50
c13 -16 12 -17 -3 -4 -10 7 -18 15 -18 17 0 8 8 3 21 -13z m6539 13 c0 -2 -8
-10 -17 -17 -16 -13 -17 -12 -4 4 13 16 21 21 21 13z m-6495 -66 c10 -11 16
-20 13 -20 -3 0 -13 9 -23 20 -10 11 -16 20 -13 20 3 0 13 -9 23 -20z m6435
-4 c0 -2 -8 -10 -17 -17 -16 -13 -17 -12 -4 4 13 16 21 21 21 13z m-6375 -66
c10 -11 16 -20 13 -20 -3 0 -13 9 -23 20 -10 11 -16 20 -13 20 3 0 13 -9 23
-20z m6295 -24 c0 -2 -8 -10 -17 -17 -16 -13 -17 -12 -4 4 13 16 21 21 21 13z
m-6235 -46 c10 -11 16 -20 13 -20 -3 0 -13 9 -23 20 -10 11 -16 20 -13 20 3 0
13 -9 23 -20z m6145 -54 c0 -2 -8 -10 -17 -17 -16 -13 -17 -12 -4 4 13 16 21
21 21 13z m-6060 -41 c19 -19 32 -35 29 -35 -3 0 -20 16 -39 35 -19 19 -32 35
-29 35 3 0 20 -16 39 -35z m125 -135 c10 -11 16 -20 13 -20 -3 0 -13 9 -23 20
-10 11 -16 20 -13 20 3 0 13 -9 23 -20z m5715 -43 c0 -2 -12 -14 -27 -28 l-28
-24 24 28 c23 25 31 32 31 24z m-5899 -73 c49 -53 240 -217 325 -281 88 -66
98 -81 17 -24 -116 81 -410 341 -386 341 5 0 25 -16 44 -36z m5829 13 c0 -2
-12 -14 -27 -28 l-28 -24 24 28 c23 25 31 32 31 24z m-60 -51 c0 -2 -8 -10
-17 -17 -16 -13 -17 -12 -4 4 13 16 21 21 21 13z m-5399 -23 c13 -16 12 -17
-3 -4 -17 13 -22 21 -14 21 2 0 10 -8 17 -17z m139 -349 c0 -2 -9 0 -20 6 -11
6 -20 13 -20 16 0 2 9 0 20 -6 11 -6 20 -13 20 -16z m50 -30 c0 -2 -9 0 -20 6
-11 6 -20 13 -20 16 0 2 9 0 20 -6 11 -6 20 -13 20 -16z m4980 -9 c0 -2 -10
-9 -22 -15 -22 -11 -22 -10 -4 4 21 17 26 19 26 11z m-70 -40 c0 -3 -27 -18
-60 -35 -33 -17 -60 -28 -60 -25 0 2 26 18 58 34 64 34 62 33 62 26z m-4670
-65 c8 -5 11 -10 5 -10 -5 0 -17 5 -25 10 -8 5 -10 10 -5 10 6 0 17 -5 25 -10z
m4515 -20 c-3 -5 -12 -10 -18 -10 -7 0 -6 4 3 10 19 12 23 12 15 0z m-4425
-20 c8 -5 11 -10 5 -10 -5 0 -17 5 -25 10 -8 5 -10 10 -5 10 6 0 17 -5 25 -10z
m70 -30 c8 -5 11 -10 5 -10 -5 0 -17 5 -25 10 -8 5 -10 10 -5 10 6 0 17 -5 25
-10z m120 -50 c8 -5 11 -10 5 -10 -5 0 -17 5 -25 10 -8 5 -10 10 -5 10 6 0 17
-5 25 -10z m50 -20 c8 -5 11 -10 5 -10 -5 0 -17 5 -25 10 -8 5 -10 10 -5 10 6
0 17 -5 25 -10z m797 -6 c-3 -3 -12 -4 -19 -1 -8 3 -5 6 6 6 11 1 17 -2 13 -5z
m110 -20 c-3 -3 -12 -4 -19 -1 -8 3 -5 6 6 6 11 1 17 -2 13 -5z m126 -21 c-7
-2 -19 -2 -25 0 -7 3 -2 5 12 5 14 0 19 -2 13 -5z m64 -9 c-3 -3 -12 -4 -19
-1 -8 3 -5 6 6 6 11 1 17 -2 13 -5z m80 -10 c-3 -3 -12 -4 -19 -1 -8 3 -5 6 6
6 11 1 17 -2 13 -5z m181 -21 c-10 -2 -26 -2 -35 0 -10 3 -2 5 17 5 19 0 27
-2 18 -5z m120 -10 c-10 -2 -28 -2 -40 0 -13 2 -5 4 17 4 22 1 32 -1 23 -4z
m140 -10 c-10 -2 -26 -2 -35 0 -10 3 -2 5 17 5 19 0 27 -2 18 -5z m-1151 -49
c-3 -3 -12 -4 -19 -1 -8 3 -5 6 6 6 11 1 17 -2 13 -5z"/>
        <path d="M10730 6401 c-30 -10 -101 -37 -158 -60 -401 -161 -877 -272 -1377
-320 -446 -43 -886 -62 -1155 -50 -256 11 -600 35 -790 55 -172 18 -578 94
-687 129 -55 17 -101 25 -156 25 -136 0 -177 -34 -349 -289 -131 -195 -173
-272 -210 -386 -52 -158 -114 -398 -142 -555 -56 -313 -67 -734 -27 -1060 29
-243 43 -303 131 -595 107 -354 269 -724 363 -831 75 -85 287 -170 558 -224
323 -64 503 -76 1244 -86 389 -5 506 -3 680 10 116 9 269 21 340 27 684 51
1891 311 2226 479 42 21 90 55 108 75 71 81 175 335 236 576 68 267 100 626
92 1024 -8 393 -28 591 -87 880 -96 469 -151 638 -303 928 -80 154 -101 178
-199 227 -78 39 -83 40 -182 39 -69 0 -118 -6 -156 -18z m338 -131 c23 -17 42
-33 42 -37 0 -3 -8 1 -17 9 -10 9 -34 25 -53 37 -19 11 -30 21 -24 21 6 0 30
-14 52 -30z m-590 -75 c-7 -8 -278 -95 -291 -94 -7 0 51 22 128 49 131 45 175
57 163 45z m677 -35 c9 -16 13 -30 11 -30 -3 0 -12 14 -21 30 -9 17 -13 30
-11 30 3 0 12 -13 21 -30z m-212 -71 l42 -41 -38 27 c-22 17 -56 30 -85 33
-44 6 -45 6 -17 13 51 11 55 10 98 -32z m-846 -15 c-3 -3 -12 -4 -19 -1 -8 3
-5 6 6 6 11 1 17 -2 13 -5z m-3782 -24 c-10 -11 -23 -20 -29 -20 -6 0 0 9 14
20 32 25 38 25 15 0z m272 -6 c-3 -3 -12 -4 -19 -1 -8 3 -5 6 6 6 11 1 17 -2
13 -5z m3350 -10 c-3 -3 -12 -4 -19 -1 -8 3 -5 6 6 6 11 1 17 -2 13 -5z
m-3270 -10 c-3 -3 -12 -4 -19 -1 -8 3 -5 6 6 6 11 1 17 -2 13 -5z m3230 0 c-3
-3 -12 -4 -19 -1 -8 3 -5 6 6 6 11 1 17 -2 13 -5z m-3180 -10 c-3 -3 -12 -4
-19 -1 -8 3 -5 6 6 6 11 1 17 -2 13 -5z m4191 -50 c133 -196 245 -611 331
-1234 37 -263 44 -404 32 -603 -17 -267 -49 -537 -77 -646 -49 -190 -139 -416
-180 -453 -27 -23 -284 -100 -766 -227 -198 -53 -273 -67 -585 -111 -197 -28
-398 -57 -448 -65 -219 -35 -483 -58 -856 -76 -312 -14 -936 5 -1181 37 l-47
6 67 33 c38 18 79 46 93 62 14 17 56 90 94 162 74 144 59 128 277 297 42 32
116 96 166 141 l89 82 6 -93 c7 -101 29 -174 76 -248 24 -37 44 -53 106 -84
67 -33 88 -38 165 -42 190 -9 547 51 670 113 71 35 96 59 126 117 23 45 24 57
24 224 l0 176 26 -6 c42 -11 286 -117 328 -143 56 -36 122 -100 174 -168 75
-100 163 -185 227 -218 59 -31 62 -32 224 -35 l164 -4 72 36 c79 39 110 72
150 158 21 45 25 68 25 148 0 80 -4 103 -25 148 -22 47 -25 68 -25 163 0 102
-2 114 -30 169 -32 64 -77 102 -176 147 -53 24 -63 25 -168 20 -79 -4 -135
-13 -196 -31 -50 -16 -95 -24 -110 -20 -26 6 -116 46 -331 145 -70 33 -132 59
-138 59 -6 0 11 42 38 93 58 108 121 257 121 287 0 24 -3 22 187 159 155 114
201 138 361 197 88 32 100 34 222 34 l129 0 131 66 c156 79 221 134 261 219
25 52 29 72 29 150 0 82 -3 97 -34 160 -41 86 -79 122 -181 177 -76 41 -82 47
-115 110 -20 38 -41 73 -48 80 -10 10 17 22 125 59 76 25 185 65 243 87 58 23
110 40 115 38 6 -1 25 -25 43 -52z m-4135 39 c-7 -2 -19 -2 -25 0 -7 3 -2 5
12 5 14 0 19 -2 13 -5z m-569 -85 c-87 -126 -102 -135 -21 -13 41 62 67 95 74
95 3 0 -21 -37 -53 -82z m619 75 c-7 -2 -19 -2 -25 0 -7 3 -2 5 12 5 14 0 19
-2 13 -5z m2924 1 c-3 -3 -12 -4 -19 -1 -8 3 -5 6 6 6 11 1 17 -2 13 -5z
m-2864 -11 c-7 -2 -21 -2 -30 0 -10 3 -4 5 12 5 17 0 24 -2 18 -5z m44 -9 c-3
-3 -12 -4 -19 -1 -8 3 -5 6 6 6 11 1 17 -2 13 -5z m108 -19 c6 -3 -10 -2 -35
1 -25 3 -49 10 -54 14 -8 8 67 -5 89 -15z m46 -13 c-7 -2 -18 1 -23 6 -8 8 -4
9 13 5 13 -4 18 -8 10 -11z m2436 12 c-3 -3 -12 -4 -19 -1 -8 3 -5 6 6 6 11 1
17 -2 13 -5z m-64 -11 c-7 -2 -19 -2 -25 0 -7 3 -2 5 12 5 14 0 19 -2 13 -5z
m-90 -10 c-7 -2 -19 -2 -25 0 -7 3 -2 5 12 5 14 0 19 -2 13 -5z m-2100 -10
c-7 -2 -21 -2 -30 0 -10 3 -4 5 12 5 17 0 24 -2 18 -5z m110 -10 c-7 -2 -21
-2 -30 0 -10 3 -4 5 12 5 17 0 24 -2 18 -5z m1790 0 c-7 -2 -19 -2 -25 0 -7 3
-2 5 12 5 14 0 19 -2 13 -5z m-1660 -10 c-13 -2 -33 -2 -45 0 -13 2 -3 4 22 4
25 0 35 -2 23 -4z m1550 0 c-7 -2 -19 -2 -25 0 -7 3 -2 5 12 5 14 0 19 -2 13
-5z m1205 -64 c23 -39 39 -69 35 -67 -161 82 -207 87 -320 33 -74 -36 -148
-90 -237 -174 l-49 -46 38 55 c21 30 51 71 65 90 31 41 56 85 43 77 -4 -2 -39
-8 -78 -12 -38 -4 -74 -9 -80 -12 -7 -4 -7 -3 0 4 6 5 44 16 85 22 83 14 423
91 429 97 14 13 31 -4 69 -67z m-2635 54 c-7 -2 -21 -2 -30 0 -10 3 -4 5 12 5
17 0 24 -2 18 -5z m1294 1 c-3 -3 -12 -4 -19 -1 -8 3 -5 6 6 6 11 1 17 -2 13
-5z m-2429 -35 c26 -10 29 -18 5 -14 -24 4 -82 -21 -113 -48 -13 -12 -20 -15
-14 -7 5 8 21 32 34 52 26 39 28 39 88 17z m3169 -75 c-3 -3 -12 -4 -19 -1 -8
3 -5 6 6 6 11 1 17 -2 13 -5z m-3107 -45 c236 -54 528 -95 810 -114 129 -9
241 -18 248 -20 7 -3 136 -9 288 -15 445 -18 1118 12 1572 70 85 11 157 19
158 17 2 -1 -23 -35 -54 -75 -32 -40 -80 -113 -107 -163 -45 -83 -117 -179
-133 -179 -4 0 -18 20 -31 45 -42 79 -184 174 -350 236 -79 29 -99 32 -234 37
-233 7 -342 -18 -590 -138 -240 -115 -349 -193 -444 -317 l-56 -73 -46 34
c-28 21 -72 72 -113 132 -120 178 -244 286 -436 382 -111 55 -115 56 -212 60
-94 4 -102 3 -166 -27 -38 -18 -86 -47 -109 -66 -43 -35 -105 -137 -105 -173
0 -15 -14 -27 -52 -45 -71 -33 -121 -84 -166 -170 -36 -70 -37 -75 -37 -177 0
-101 1 -108 35 -170 29 -54 46 -72 100 -107 35 -24 113 -63 172 -89 128 -54
205 -64 333 -44 79 12 90 12 172 -10 155 -40 265 -83 397 -155 154 -84 204
-129 270 -248 l48 -88 -58 -62 c-95 -100 -456 -432 -514 -472 -35 -24 -40 -25
-89 -14 -29 6 -103 9 -165 8 -111 -4 -112 -4 -219 -56 -123 -60 -204 -128
-245 -208 -24 -45 -27 -60 -26 -155 0 -93 3 -112 28 -165 15 -33 35 -68 44
-79 23 -25 130 -76 162 -76 20 0 31 -11 54 -55 16 -31 42 -67 58 -80 36 -30
35 -30 -72 -5 -101 24 -179 73 -215 134 -25 43 -154 342 -210 486 -101 259
-162 595 -172 950 -7 228 3 349 53 645 69 408 101 500 262 747 83 127 81 126
162 107z m3867 -137 c20 -17 22 -21 7 -13 -26 13 -74 68 -74 84 0 7 9 -1 20
-18 11 -16 32 -41 47 -53z m-274 27 c15 -23 -15 -59 -91 -109 -59 -39 -92 -80
-92 -115 0 -21 -7 -19 -43 15 -18 16 -34 30 -37 30 -3 0 -26 -20 -53 -44 -26
-25 -47 -41 -47 -36 0 12 239 239 274 261 36 22 74 21 89 -2z m-4162 -66 c-12
-20 -14 -14 -5 12 4 9 9 14 11 11 3 -2 0 -13 -6 -23z m3709 13 c0 -2 -8 -10
-17 -17 -16 -13 -17 -12 -4 4 13 16 21 21 21 13z m1727 -128 c-3 -8 -6 -5 -6
6 -1 11 2 17 5 13 3 -3 4 -12 1 -19z m-1168 -42 c-8 -8 -113 -45 -117 -42 -2
2 21 13 50 25 51 19 76 26 67 17z m-3363 -64 c73 -48 250 -190 284 -228 l25
-29 -30 26 c-17 15 -54 39 -84 54 l-53 27 -28 -27 -27 -26 -6 30 c-5 26 -18
36 -76 66 -39 19 -86 49 -105 66 -34 29 -35 31 -20 55 23 34 51 30 120 -14z
m-366 -47 c-12 -13 -32 -25 -44 -27 -20 -4 -18 1 15 32 22 20 40 45 40 56 1
10 4 6 6 -10 3 -19 -2 -35 -17 -51z m711 48 c13 -16 12 -17 -3 -4 -10 7 -18
15 -18 17 0 8 8 3 21 -13z m2521 -22 c-9 -16 -18 -28 -21 -26 -4 5 27 55 34
55 2 0 -4 -13 -13 -29z m318 15 c0 -9 -39 -13 -51 -5 -10 6 -4 9 19 9 17 0 32
-2 32 -4z m390 -36 c0 -18 -130 -120 -153 -120 -5 0 5 10 24 23 19 12 50 49
68 81 32 52 36 56 48 40 7 -10 13 -21 13 -24z m-520 -41 c27 -14 33 -11 -92
-42 -37 -10 -37 14 -1 65 l26 39 21 -25 c12 -13 32 -30 46 -37z m368 49 c-7
-21 -56 -39 -96 -36 l-37 3 60 22 c72 26 78 27 73 11z m-1575 -15 c-7 -2 -21
-2 -30 0 -10 3 -4 5 12 5 17 0 24 -2 18 -5z m2724 -15 c-3 -8 -6 -5 -6 6 -1
11 2 17 5 13 3 -3 4 -12 1 -19z m-1730 -30 c-3 -7 -5 -2 -5 12 0 14 2 19 5 13
2 -7 2 -19 0 -25z m-324 -68 c-82 -80 -106 -93 -117 -65 -4 11 13 24 62 49 37
19 80 48 96 65 17 17 32 31 35 31 3 0 -31 -36 -76 -80z m2064 48 c-3 -8 -6 -5
-6 6 -1 11 2 17 5 13 3 -3 4 -12 1 -19z m-5600 -30 c-3 -8 -6 -5 -6 6 -1 11 2
17 5 13 3 -3 4 -12 1 -19z m2905 -24 c89 -32 157 -75 186 -118 20 -29 72 -166
72 -190 0 -5 -15 4 -32 21 -18 17 -61 45 -95 62 -58 29 -70 31 -170 31 -98 0
-113 -3 -169 -29 -34 -16 -64 -35 -66 -42 -4 -11 -14 -9 -49 6 -38 17 -64 20
-189 19 -168 -2 -168 -7 -6 93 119 74 302 147 416 166 14 2 26 5 27 6 1 0 35
-11 75 -25z m265 -46 c12 -18 23 -34 23 -37 0 -2 -1 -2 -3 0 -2 2 -26 29 -53
59 -30 33 -38 46 -20 32 16 -12 40 -37 53 -54z m2440 50 c-3 -8 -6 -5 -6 6 -1
11 2 17 5 13 3 -3 4 -12 1 -19z m-5622 -38 c-9 -41 -17 -33 -9 9 4 17 9 30 11
27 3 -2 2 -19 -2 -36z m2025 36 c0 -2 -8 -10 -17 -17 -16 -13 -17 -12 -4 4 13
16 21 21 21 13z m1830 -51 c-8 -53 -6 -54 89 -25 77 23 91 20 24 -5 -82 -30
-303 -146 -385 -201 l-78 -52 0 37 c0 36 2 37 128 111 132 78 197 128 207 161
12 36 22 19 15 -26z m390 35 c-41 -4 -91 -10 -110 -13 -34 -6 -34 -6 5 8 22 7
72 13 110 13 l70 -1 -75 -7z m-153 -26 c-3 -3 -12 -4 -19 -1 -8 3 -5 6 6 6 11
1 17 -2 13 -5z m-2516 -41 c13 -16 12 -17 -3 -4 -10 7 -18 15 -18 17 0 8 8 3
21 -13z m-1597 -37 c-3 -21 -8 -35 -11 -32 -2 2 -1 20 3 40 3 21 8 35 11 32 2
-2 1 -20 -3 -40z m891 19 c71 -17 133 -19 170 -5 l27 10 -19 -24 c-10 -13 -40
-49 -67 -80 -27 -31 -47 -58 -45 -60 2 -2 33 -7 69 -11 36 -4 66 -8 68 -9 4
-4 -197 -19 -241 -18 -49 0 -133 42 -177 87 -29 30 -33 38 -24 61 21 59 116
78 239 49z m363 -27 c11 -13 26 -36 32 -52 10 -29 10 -29 -22 -22 -18 4 -52 9
-76 13 l-43 6 30 18 c16 10 32 27 36 38 8 27 16 26 43 -1z m382 -3 c13 -14 21
-25 18 -25 -2 0 -15 11 -28 25 -13 14 -21 25 -18 25 2 0 15 -11 28 -25z m599
-22 c-8 -10 -16 -20 -19 -23 -3 -3 -30 -34 -60 -70 -30 -36 -57 -67 -60 -70
-38 -38 -36 -39 87 -34 l118 5 -40 -25 c-41 -25 -98 -93 -131 -156 -13 -24
-18 -56 -18 -102 0 -56 6 -78 36 -140 42 -84 71 -115 148 -157 l55 -31 -82 0
-82 0 20 -46 c33 -78 16 -58 -38 44 -72 136 -109 235 -133 351 -23 114 -25
168 -8 208 29 67 94 157 151 208 62 56 80 68 56 38z m-548 -20 c13 -16 12 -17
-3 -4 -10 7 -18 15 -18 17 0 8 8 3 21 -13z m-1704 -25 c-3 -8 -6 -5 -6 6 -1
11 2 17 5 13 3 -3 4 -12 1 -19z m1874 -30 c-25 -40 -31 -43 -56 -23 -20 16
-20 16 1 6 18 -8 24 -5 43 19 29 40 38 38 12 -2z m2429 28 c0 -2 -11 -6 -25
-8 -13 -3 -22 -1 -19 3 5 9 44 13 44 5z m-2510 -32 c0 -2 -9 0 -20 6 -11 6
-20 13 -20 16 0 2 9 0 20 -6 11 -6 20 -13 20 -16z m1700 6 c-6 -11 -13 -20
-16 -20 -2 0 0 9 6 20 6 11 13 20 16 20 2 0 0 -9 -6 -20z m-3503 -22 c-3 -8
-6 -5 -6 6 -1 11 2 17 5 13 3 -3 4 -12 1 -19z m3320 -30 c-3 -8 -6 -5 -6 6 -1
11 2 17 5 13 3 -3 4 -12 1 -19z m-1651 -112 c134 -61 139 -65 142 -96 2 -18 0
-30 -5 -28 -201 96 -271 125 -418 175 l-100 34 60 -6 c33 -4 75 -8 92 -11 32
-5 33 -4 23 21 -15 39 -14 39 28 5 21 -17 101 -59 178 -94z m-1679 82 c-3 -8
-6 -5 -6 6 -1 11 2 17 5 13 3 -3 4 -12 1 -19z m3340 -30 c-3 -7 -5 -2 -5 12 0
14 2 19 5 13 2 -7 2 -19 0 -25z m-3350 -50 c-3 -7 -5 -2 -5 12 0 14 2 19 5 13
2 -7 2 -19 0 -25z m2734 8 c25 -1 25 -2 16 -40 -8 -29 -12 -35 -19 -23 -4 9
-25 30 -46 48 l-37 31 30 -8 c17 -4 42 -8 56 -8z m626 -140 c10 -8 -34 -153
-67 -223 -47 -100 -192 -365 -197 -359 -2 2 10 33 27 69 16 36 30 68 30 71 0
3 -37 6 -82 6 l-83 0 42 19 c49 23 91 76 142 181 34 71 36 81 36 175 0 93 -2
104 -31 156 l-31 57 106 -75 c58 -42 107 -76 108 -77z m0 122 c-3 -7 -5 -2 -5
12 0 14 2 19 5 13 2 -7 2 -19 0 -25z m-1467 -23 c0 -8 -2 -15 -4 -15 -2 0 -6
7 -10 15 -3 8 -1 15 4 15 6 0 10 -7 10 -15z m-1903 -52 c-3 -10 -5 -4 -5 12 0
17 2 24 5 18 2 -7 2 -21 0 -30z m1136 0 c-7 -2 -19 -2 -25 0 -7 3 -2 5 12 5
14 0 19 -2 13 -5z m54 -9 c-3 -3 -12 -4 -19 -1 -8 3 -5 6 6 6 11 1 17 -2 13
-5z m2426 -106 c-17 -18 -36 -46 -42 -63 l-11 -30 6 35 c3 22 17 45 37 63 42
37 48 34 10 -5z m-808 -54 c0 -25 -10 -23 -17 4 -3 10 0 19 6 19 6 0 11 -10
11 -23z m-23 -227 c15 -26 38 -49 67 -64 l44 -23 -67 0 c-78 0 -77 2 -24 -104
36 -72 31 -85 -6 -16 -16 30 -40 57 -58 66 -43 22 -129 15 -168 -14 l-29 -22
19 45 c13 29 15 45 8 45 -6 0 13 12 43 28 62 31 93 71 117 154 l17 58 7 -56
c4 -31 18 -74 30 -97z m-906 71 l29 -33 -32 29 c-18 17 -33 31 -33 33 0 8 8 1
36 -29z m-1689 -60 c-3 -7 -5 -2 -5 12 0 14 2 19 5 13 2 -7 2 -19 0 -25z m10
-210 c-3 -7 -5 -2 -5 12 0 14 2 19 5 13 2 -7 2 -19 0 -25z m1846 -14 l16 -31
-46 -44 c-37 -35 -41 -38 -23 -13 12 18 25 53 27 78 3 26 7 45 8 44 1 -2 10
-17 18 -34z m383 10 c-3 -9 -6 -21 -6 -27 -1 -13 -30 22 -30 35 0 4 9 8 21 8
15 0 19 -4 15 -16z m578 -6 c-3 -13 -14 -39 -24 -58 l-18 -34 -26 52 c-14 28
-26 54 -26 57 0 3 23 5 51 5 48 0 50 -1 43 -22z m-874 -39 c0 -9 -7 -22 -15
-29 -14 -11 -14 -10 -6 13 6 15 8 35 5 44 -5 15 -4 16 5 3 6 -8 11 -22 11 -31z
m380 -49 c-5 -25 -9 -87 -10 -137 0 -121 10 -133 108 -133 98 0 197 17 245 41
48 25 56 34 58 69 0 20 5 16 21 -22 11 -27 24 -48 28 -48 4 0 18 24 30 53 48
112 103 227 107 223 3 -2 -3 -19 -13 -38 -40 -78 -54 -152 -65 -347 -12 -212
-21 -266 -34 -191 -14 86 -44 120 -104 120 -31 0 -71 -29 -71 -52 -1 -7 -7 -1
-16 14 -25 48 -99 50 -129 4 -10 -15 -19 -62 -24 -122 l-8 -99 -2 108 c-1 141
-14 167 -81 167 -19 0 -40 -4 -46 -8 -21 -14 -43 -70 -52 -133 l-10 -64 -1 90
c-1 76 -32 265 -55 340 -4 11 0 7 8 -10 l14 -30 25 55 c13 30 37 88 52 128 16
39 29 71 31 70 1 -2 -2 -23 -6 -48z m3077 -2 c-3 -7 -5 -2 -5 12 0 14 2 19 5
13 2 -7 2 -19 0 -25z m-5380 -20 c-3 -8 -6 -5 -6 6 -1 11 2 17 5 13 3 -3 4
-12 1 -19z m2513 -23 c36 -33 29 -95 -11 -95 -54 0 -95 65 -64 100 19 21 49
18 75 -5z m589 -55 c32 -16 99 -46 147 -66 49 -20 145 -63 213 -96 68 -32 137
-62 153 -65 31 -6 49 -23 23 -23 -8 0 -42 -11 -74 -24 -33 -13 -63 -21 -68
-17 -7 7 -62 32 -226 105 -32 14 -63 26 -71 26 -7 0 -16 3 -20 7 -3 4 -12 8
-19 9 -36 6 -134 50 -149 66 -16 19 -16 22 5 64 11 24 22 44 24 44 2 0 30 -13
62 -30z m2268 -27 c-3 -10 -5 -2 -5 17 0 19 2 27 5 18 2 -10 2 -26 0 -35z
m-5360 15 c-3 -8 -6 -5 -6 6 -1 11 2 17 5 13 3 -3 4 -12 1 -19z m1683 -2 c0
-3 -4 -8 -10 -11 -5 -3 -10 -1 -10 4 0 6 5 11 10 11 6 0 10 -2 10 -4z m234
-100 c-16 -11 -101 -90 -189 -176 -197 -191 -259 -243 -369 -309 -47 -29 -97
-67 -111 -85 -13 -18 -45 -79 -70 -135 -97 -218 -117 -243 -177 -222 -18 6
-42 21 -55 32 l-22 22 29 58 c35 69 38 101 10 129 -25 25 -37 25 -175 1 -60
-11 -114 -16 -119 -11 -14 14 70 95 132 128 86 46 123 49 215 18 43 -14 99
-26 125 -26 43 0 58 7 157 76 61 42 137 102 170 134 33 31 95 83 138 114 43
31 135 113 205 182 93 91 128 120 131 108 2 -11 -8 -26 -25 -38z m-1907 22
c-3 -8 -6 -5 -6 6 -1 11 2 17 5 13 3 -3 4 -12 1 -19z m2013 -18 c0 -10 -7 -21
-16 -24 -12 -5 -15 -2 -9 11 4 10 8 23 8 30 1 19 17 4 17 -17z m3327 -2 c-3
-8 -6 -5 -6 6 -1 11 2 17 5 13 3 -3 4 -12 1 -19z m-1530 -4 c-3 -3 -12 -4 -19
-1 -8 3 -5 6 6 6 11 1 17 -2 13 -5z m-3800 -36 c-3 -8 -6 -5 -6 6 -1 11 2 17
5 13 3 -3 4 -12 1 -19z m1523 9 c0 -2 -10 -12 -22 -23 l-23 -19 19 23 c18 21
26 27 26 19z m3797 -69 c-3 -8 -6 -5 -6 6 -1 11 2 17 5 13 3 -3 4 -12 1 -19z
m-2251 -53 c65 -23 56 -26 -31 -9 -16 3 -38 6 -47 7 -21 1 -25 27 -5 27 7 0
44 -11 83 -25z m1023 -11 c2 -2 -31 -4 -75 -3 l-79 1 55 12 c49 11 79 8 99
-10z m1218 -26 c-3 -7 -5 -2 -5 12 0 14 2 19 5 13 2 -7 2 -19 0 -25z m-1202
-30 c-4 -14 -22 -41 -42 -59 l-35 -34 33 67 c32 65 57 79 44 26z m-288 -118
c62 -82 107 -147 99 -144 -7 3 -26 23 -42 45 -84 118 -152 187 -230 236 -17
10 -14 12 21 12 l40 1 112 -150z m-2497 127 c0 -2 -12 -14 -27 -28 l-28 -24
24 28 c23 25 31 32 31 24z m3977 -39 c-3 -7 -5 -2 -5 12 0 14 2 19 5 13 2 -7
2 -19 0 -25z m-3366 -18 c-80 -72 -154 -135 -162 -138 -12 -5 130 130 165 156
46 35 45 25 -3 -18z m1999 -21 c-9 -16 -14 -18 -26 -8 -21 17 -17 29 11 29 23
0 24 -2 15 -21z m-2690 7 c0 -2 -8 -10 -17 -17 -16 -13 -17 -12 -4 4 13 16 21
21 21 13z m4047 -18 c-3 -8 -6 -5 -6 6 -1 11 2 17 5 13 3 -3 4 -12 1 -19z
m-2707 -68 c5 0 18 17 29 38 11 20 21 30 21 22 1 -8 3 -22 5 -30 3 -14 13 -70
20 -115 2 -11 7 -31 10 -45 3 -14 8 -46 12 -72 5 -44 4 -48 -16 -49 -11 -1
-31 -2 -43 -3 -41 -4 -61 24 -73 101 -3 21 -7 50 -10 63 -3 14 -7 46 -10 71
-3 25 -8 56 -10 69 -4 21 0 19 26 -13 17 -20 35 -37 39 -37z m1742 41 c2 -17
1 -28 -4 -25 -8 5 -12 54 -4 54 2 0 6 -13 8 -29z m-3162 -16 c0 -9 -59 -35
-80 -35 -28 0 -25 15 3 18 13 1 35 6 48 11 30 12 29 12 29 6z m2866 -52 c3
-15 22 -32 52 -47 80 -41 90 -67 37 -102 -24 -16 -29 -16 -83 0 -31 10 -66 24
-77 32 -18 14 -18 16 21 95 24 50 40 74 42 63 1 -11 5 -29 8 -41z m-461 7 c10
-11 16 -20 13 -20 -3 0 -13 9 -23 20 -10 11 -16 20 -13 20 3 0 13 -9 23 -20z
m-1342 -241 c-18 -18 -51 -18 -68 1 -17 19 -21 56 -16 180 l2 55 46 -113 c29
-72 42 -117 36 -123z m511 174 c14 -29 22 -53 17 -53 -8 0 -51 89 -51 106 0
12 6 2 34 -53z m-985 25 c-2 -2 -17 -14 -34 -28 l-30 -25 24 28 c14 15 29 27
34 27 6 0 8 -1 6 -2z m1891 -33 c13 -14 21 -25 18 -25 -2 0 -15 11 -28 25 -13
14 -21 25 -18 25 2 0 15 -11 28 -25z m579 -34 c-1 -24 -2 -24 -8 5 -4 17 -11
37 -15 45 -4 8 0 5 8 -5 9 -11 16 -31 15 -45z m-3649 26 c0 -2 -10 -12 -22
-23 l-23 -19 19 23 c18 21 26 27 26 19z m1809 -105 c28 -70 27 -85 -1 -76 -33
10 -35 17 -36 102 -1 53 2 69 7 52 5 -14 18 -49 30 -78z m-2209 -57 c0 -5 -5
-3 -10 5 -5 8 -10 20 -10 25 0 6 5 3 10 -5 5 -8 10 -19 10 -25z m1370 31 c0
-2 -8 -10 -17 -17 -16 -13 -17 -12 -4 4 13 16 21 21 21 13z m-40 -30 c0 -2
-34 -31 -75 -65 -41 -34 -75 -59 -75 -56 0 4 142 125 148 125 1 0 2 -2 2 -4z
m897 -162 c-3 -3 -12 -4 -19 -1 -8 3 -5 6 6 6 11 1 17 -2 13 -5z m2683 -41
c-20 -25 -78 -58 -87 -49 -2 2 10 9 26 15 16 7 39 23 52 37 30 32 36 31 9 -3z
m-4339 -10 c13 -17 13 -17 -6 -3 -11 8 -22 16 -24 17 -2 2 0 3 6 3 6 0 17 -8
24 -17z m4560 -36 c-10 -9 -11 -8 -5 6 3 10 9 15 12 12 3 -3 0 -11 -7 -18z
m-4587 -39 l19 -33 -24 22 c-13 12 -35 26 -49 32 -25 10 -25 10 5 10 24 1 35
-6 49 -31z m4567 -1 c-10 -9 -11 -8 -5 6 3 10 9 15 12 12 3 -3 0 -11 -7 -18z
m-31 -50 c0 -2 -12 -14 -27 -28 l-28 -24 24 28 c23 25 31 32 31 24z m-643 -33
c-3 -3 -12 -4 -19 -1 -8 3 -5 6 6 6 11 1 17 -2 13 -5z m-70 -20 c-3 -3 -12 -4
-19 -1 -8 3 -5 6 6 6 11 1 17 -2 13 -5z m-4309 -237 l34 -42 -39 41 c-34 37
-123 189 -123 210 0 5 22 -31 48 -79 26 -49 62 -107 80 -130z m4159 197 c-3
-3 -12 -4 -19 -1 -8 3 -5 6 6 6 11 1 17 -2 13 -5z m-3381 -42 c45 2 81 2 80 1
-7 -7 -130 -84 -124 -78 4 5 -19 28 -52 52 -33 25 -60 47 -60 48 0 2 16 -3 36
-11 26 -11 62 -14 120 -12z m-611 -2 c10 -11 16 -20 13 -20 -3 0 -13 9 -23 20
-10 11 -16 20 -13 20 3 0 13 -9 23 -20z m3652 -46 c-3 -3 -12 -4 -19 -1 -8 3
-5 6 6 6 11 1 17 -2 13 -5z m-3502 -52 c-5 -5 -74 28 -80 39 -3 4 14 -2 39
-14 25 -12 43 -23 41 -25z m3442 42 c-3 -3 -12 -4 -19 -1 -8 3 -5 6 6 6 11 1
17 -2 13 -5z m-3051 -39 c-8 -8 -17 -15 -21 -15 -3 0 -23 -11 -44 -25 -32 -22
-45 -25 -82 -19 -55 8 -85 23 -49 24 14 0 61 11 105 25 98 29 112 31 91 10z
m3531 -51 c-3 -3 -12 -4 -19 -1 -8 3 -5 6 6 6 11 1 17 -2 13 -5z m-170 -40
c-3 -3 -12 -4 -19 -1 -8 3 -5 6 6 6 11 1 17 -2 13 -5z m-1304 -11 c-7 -2 -21
-2 -30 0 -10 3 -4 5 12 5 17 0 24 -2 18 -5z m1254 1 c-3 -3 -12 -4 -19 -1 -8
3 -5 6 6 6 11 1 17 -2 13 -5z m-1354 -11 c-7 -2 -21 -2 -30 0 -10 3 -4 5 12 5
17 0 24 -2 18 -5z m1314 1 c-3 -3 -12 -4 -19 -1 -8 3 -5 6 6 6 11 1 17 -2 13
-5z m-1419 -11 c-10 -2 -26 -2 -35 0 -10 3 -2 5 17 5 19 0 27 -2 18 -5z m1329
-9 c-3 -3 -12 -4 -19 -1 -8 3 -5 6 6 6 11 1 17 -2 13 -5z m-3737 -19 c14 -8
21 -14 15 -14 -5 0 -21 6 -35 14 -14 8 -20 14 -15 14 6 0 21 -6 35 -14z m3687
9 c-3 -3 -12 -4 -19 -1 -8 3 -5 6 6 6 11 1 17 -2 13 -5z m-50 -10 c-3 -3 -12
-4 -19 -1 -8 3 -5 6 6 6 11 1 17 -2 13 -5z m-50 -10 c-3 -3 -12 -4 -19 -1 -8
3 -5 6 6 6 11 1 17 -2 13 -5z m-50 -10 c-3 -3 -12 -4 -19 -1 -8 3 -5 6 6 6 11
1 17 -2 13 -5z m-60 -10 c-3 -3 -12 -4 -19 -1 -8 3 -5 6 6 6 11 1 17 -2 13 -5z
m-44 -11 c-7 -2 -19 -2 -25 0 -7 3 -2 5 12 5 14 0 19 -2 13 -5z m-176 -29 c-3
-3 -12 -4 -19 -1 -8 3 -5 6 6 6 11 1 17 -2 13 -5z m-2930 -30 c-3 -3 -12 -4
-19 -1 -8 3 -5 6 6 6 11 1 17 -2 13 -5z m2750 0 c-3 -3 -12 -4 -19 -1 -8 3 -5
6 6 6 11 1 17 -2 13 -5z m-2694 -11 c-7 -2 -19 -2 -25 0 -7 3 -2 5 12 5 14 0
19 -2 13 -5z m2614 1 c-3 -3 -12 -4 -19 -1 -8 3 -5 6 6 6 11 1 17 -2 13 -5z
m-2560 -10 c-3 -3 -12 -4 -19 -1 -8 3 -5 6 6 6 11 1 17 -2 13 -5z m2480 0 c-3
-3 -12 -4 -19 -1 -8 3 -5 6 6 6 11 1 17 -2 13 -5z m-2430 -10 c-3 -3 -12 -4
-19 -1 -8 3 -5 6 6 6 11 1 17 -2 13 -5z m2270 -10 c-3 -3 -12 -4 -19 -1 -8 3
-5 6 6 6 11 1 17 -2 13 -5z"/>
    </g>
</svg>
