<svg xmlns="http://www.w3.org/2000/svg" viewBox="0 0 23.64 25.22">
    <title>site-building</title>
    <g id="Layer_2" data-name="Layer 2">
        <g id="Capa_1" data-name="Capa 1">
            <path d="M9,18.84a1.22,1.22,0,1,0,1.22,1.22A1.22,1.22,0,0,0,9,18.84Zm0,1.61a.4.4,0,1,1,.4-.4A.4.4,0,0,1,9,20.45Z"/>
            <path d="M11.79,18.84A1.22,1.22,0,1,0,13,20.05,1.22,1.22,0,0,0,11.79,18.84Zm0,1.61a.4.4,0,1,1,.4-.4A.4.4,0,0,1,11.79,20.45Z"/>
            <path d="M14.61,18.84a1.22,1.22,0,1,0,1.22,1.22A1.22,1.22,0,0,0,14.61,18.84Zm0,1.61a.4.4,0,1,1,.4-.4A.4.4,0,0,1,14.61,20.45Z"/>
            <path d="M23.63,15.34a.41.41,0,0,0-.49-.31l-6.89,1.6a.41.41,0,0,0-.32.4.6.6,0,0,1-.6.6H12.2V11.35a1.89,1.89,0,0,0,2.88-.12l.31-.39.31.39a1.89,1.89,0,0,0,3,0l.51-.65h.57a.41.41,0,0,0,0-.82H12.2v-2a1.89,1.89,0,0,0,2.88-.12L15.59,7h.64a.41.41,0,0,0,0-.82h-4V4.53h.87a.41.41,0,0,0,.4-.34l.28-1.72a.41.41,0,0,0-.4-.48H12.2V.41a.41.41,0,1,0-.82,0V2H10.23a.41.41,0,0,0-.4.48l.28,1.72a.41.41,0,0,0,.4.34h.87V6.16h-4a.41.41,0,1,0,0,.82H8l.51.65a1.89,1.89,0,0,0,2.88.12v2H3.84a.41.41,0,1,0,0,.82h.57l.51.65a1.89,1.89,0,0,0,3,0l.31-.39.31.39a1.89,1.89,0,0,0,2.88.12v6.28H10a.74.74,0,0,1-.74-.74V14.25a.41.41,0,0,0-.41-.41H.41a.41.41,0,1,0,0,.82H1v.86H.41a.41.41,0,1,0,0,.82H1V18a.41.41,0,0,0,.41.41H2.85a8.37,8.37,0,0,0,.44,2.17H2.85a.41.41,0,0,0-.41.41v2.92a.41.41,0,0,0,.41.41h2a.41.41,0,0,0,.37-.24l.24-.52a10.47,10.47,0,0,0,6.26,1.62,9.16,9.16,0,0,0,9.13-8.83l2.44-.57A.41.41,0,0,0,23.63,15.34ZM10.71,2.81h2.16l-.15.9H10.86Zm2.88,8.33a1.07,1.07,0,0,1-.84-.41l-.11-.14h1.91l-.11.14A1.07,1.07,0,0,1,13.59,11.14ZM18,10.73a1.07,1.07,0,0,1-1.69,0l-.11-.14h1.91Zm-3.59-3.6a1.07,1.07,0,0,1-1.69,0L12.63,7h1.91ZM10,7.53a1.07,1.07,0,0,1-.84-.41L9,7H11l-.11.14A1.07,1.07,0,0,1,10,7.53ZM6.4,11.14a1.07,1.07,0,0,1-.84-.41l-.11-.14H7.36l-.11.14A1.07,1.07,0,0,1,6.4,11.14Zm3.59,0a1.07,1.07,0,0,1-.84-.41L9,10.58H11l-.11.14A1.07,1.07,0,0,1,10,11.14ZM1.8,14.66H8.42v.86H1.8Zm2.83,8.88H3.26v-2.1h.38a6,6,0,0,0,1.21,1.62Zm7.13.86c-5.05,0-7.77-2-8.08-6H7.59a.41.41,0,0,0,0-.82H1.8v-1.3H8.42v.55A1.56,1.56,0,0,0,10,18.45h5.35a1.42,1.42,0,0,0,1.38-1.09l3.35-.78A8.34,8.34,0,0,1,11.75,24.4Z"/>
        </g>
    </g>
</svg>